<svg width="512" height="512" viewBox="0 0 512 512" fill="none" xmlns="http://www.w3.org/2000/svg">
<path d="M141 158C162.45 158 183.9 158 206 158C206 160.31 206 162.62 206 165C208.31 165 210.62 165 213 165C213 167.31 213 169.62 213 172C215.31 172 217.62 172 220 172C220 209.95 220 247.9 220 287C222.31 287 224.62 287 227 287C227 291.95 227 296.9 227 302C229.31 302 231.62 302 234 302C234 303.98 234 305.96 234 308C236.31 308 238.62 308 241 308C241.495 311.465 241.495 311.465 242 315C252.395 315.495 252.395 315.495 263 316C263 313.69 263 311.38 263 309C264 308 264 308 266.941 307.902C268.734 307.92 268.734 307.92 270.562 307.938C272.359 307.951 272.359 307.951 274.191 307.965C275.118 307.976 276.045 307.988 277 308C276.979 307.031 276.959 306.061 276.938 305.062C277 302 277 302 278 301C280.31 301 282.62 301 285 301C285 296.38 285 291.76 285 287C287.31 287 289.62 287 292 287C292 249.38 292 211.76 292 173C294.31 173 296.62 173 299 173C299 186.86 299 200.72 299 215C315.83 215 332.66 215 350 215C350 201.14 350 187.28 350 173C351.98 173 353.96 173 356 173C356 186.86 356 200.72 356 215C363.26 215 370.52 215 378 215C378 201.14 378 187.28 378 173C380.31 173 382.62 173 385 173C385 210.62 385 248.24 385 287C382.69 287 380.38 287 378 287C378 293.93 378 300.86 378 308C375.69 308 373.38 308 371 308C371 312.95 371 317.9 371 323C368.36 323 365.72 323 363 323C363 327.62 363 332.24 363 337C360.69 337 358.38 337 356 337C356 339.64 356 342.28 356 345C353.69 345 351.38 345 349 345C349 347.31 349 349.62 349 352C346.69 352 344.38 352 342 352C342 354.31 342 356.62 342 359C339.69 359 337.38 359 335 359C335 361.31 335 363.62 335 366C330.05 366 325.1 366 320 366C320 368.31 320 370.62 320 373C315.38 373 310.76 373 306 373C306 375.31 306 377.62 306 380C275.31 380 244.62 380 213 380C213 375.38 213 370.76 213 366C201.12 366 189.24 366 177 366C177 363.69 177 361.38 177 359C174.69 359 172.38 359 170 359C170 356.69 170 354.38 170 352C167.69 352 165.38 352 163 352C163 349.69 163 347.38 163 345C160.36 345 157.72 345 155 345C155 342.36 155 339.72 155 337C152.69 337 150.38 337 148 337C148 327.76 148 318.52 148 309C145.69 309 143.38 309 141 309C141 280.29 141 251.58 141 222C138.69 222 136.38 222 134 222C134 219.69 134 217.38 134 215C150.5 215 167 215 184 215C184 200.81 184 186.62 184 172C181.69 172 179.38 172 177 172C177 169.69 177 167.38 177 165C165.12 165 153.24 165 141 165C141 162.69 141 160.38 141 158Z" fill="#E52C40"/>
<path d="M350 173C351.98 173 353.96 173 356 173C356 186.86 356 200.72 356 215C363.26 215 370.52 215 378 215C378 201.14 378 187.28 378 173C380.31 173 382.62 173 385 173C385 210.62 385 248.24 385 287C382.69 287 380.38 287 378 287C378 293.93 378 300.86 378 308C375.69 308 373.38 308 371 308C371 312.95 371 317.9 371 323C368.36 323 365.72 323 363 323C363 327.62 363 332.24 363 337C360.69 337 358.38 337 356 337C356 339.64 356 342.28 356 345C353.69 345 351.38 345 349 345C349 347.31 349 349.62 349 352C346.69 352 344.38 352 342 352C342 354.31 342 356.62 342 359C339.69 359 337.38 359 335 359C335 361.31 335 363.62 335 366C330.05 366 325.1 366 320 366C320 368.31 320 370.62 320 373C315.38 373 310.76 373 306 373C306 375.31 306 377.62 306 380C275.31 380 244.62 380 213 380C213 377.69 213 375.38 213 373C222.24 373 231.48 373 241 373C241 370.69 241 368.38 241 366C248.59 366 256.18 366 264 366C264 363.69 264 361.38 264 359C268.62 359 273.24 359 278 359C278 356.69 278 354.38 278 352C282.62 352 287.24 352 292 352C292 349.36 292 346.72 292 344C294.31 344 296.62 344 299 344C299 341.69 299 339.38 299 337C301.31 337 303.62 337 306 337C306 334.69 306 332.38 306 330C308.31 330 310.62 330 313 330C313 327.69 313 325.38 313 323C315.31 323 317.62 323 320 323C320 318.05 320 313.1 320 308C322.31 308 324.62 308 327 308C327 301.07 327 294.14 327 287C329.64 287 332.28 287 335 287C335 263.57 335 240.14 335 216C339.62 215.67 344.24 215.34 349 215C349.33 201.14 349.66 187.28 350 173Z" fill="#3F0950"/>
<path d="M141 158C162.45 158 183.9 158 206 158C206 160.31 206 162.62 206 165C208.31 165 210.62 165 213 165C213 167.31 213 169.62 213 172C215.31 172 217.62 172 220 172C220 209.95 220 247.9 220 287C222.31 287 224.62 287 227 287C227 291.95 227 296.9 227 302C229.31 302 231.62 302 234 302C234 303.98 234 305.96 234 308C236.31 308 238.62 308 241 308C241.495 311.465 241.495 311.465 242 315C252.395 315.495 252.395 315.495 263 316C263 313.69 263 311.38 263 309C264 308 264 308 266.941 307.902C268.734 307.92 268.734 307.92 270.562 307.938C272.359 307.951 272.359 307.951 274.191 307.965C275.118 307.976 276.045 307.988 277 308C276.979 307.031 276.959 306.061 276.938 305.062C277 302 277 302 278 301C280.31 301 282.62 301 285 301C285 296.38 285 291.76 285 287C287.31 287 289.62 287 292 287C292 249.38 292 211.76 292 173C294.31 173 296.62 173 299 173C299 210.95 299 248.9 299 288C297.02 288 295.04 288 293 288C293 292.62 293 297.24 293 302C290.69 302.33 288.38 302.66 286 303C286.021 303.969 286.041 304.939 286.062 305.938C286 309 286 309 285 310C283 310.041 281 310.043 279 310C278.856 310.804 278.711 311.609 278.562 312.438C278 315 278 315 277 316C274.814 316.073 272.625 316.084 270.438 316.062C268.641 316.049 268.641 316.049 266.809 316.035C265.882 316.024 264.955 316.012 264 316C264 318.31 264 320.62 264 323C249.48 323 234.96 323 220 323C220 320.69 220 318.38 220 316C219.001 316.012 218.002 316.023 216.973 316.035C215.682 316.044 214.392 316.053 213.062 316.062C211.775 316.074 210.487 316.086 209.16 316.098C206 316 206 316 205 315C204.959 313 204.957 311 205 309C202.69 309 200.38 309 198 309C198 306.69 198 304.38 198 302C195.69 302 193.38 302 191 302C191 297.05 191 292.1 191 287C188.69 287 186.38 287 184 287C184 249.05 184 211.1 184 172C181.69 172 179.38 172 177 172C177 169.69 177 167.38 177 165C165.12 165 153.24 165 141 165C141 162.69 141 160.38 141 158Z" fill="#850E50"/>
<path d="M141 158C162.45 158 183.9 158 206 158C206 160.31 206 162.62 206 165C208.31 165 210.62 165 213 165C213 167.31 213 169.62 213 172C210.36 172 207.72 172 205 172C205 170.02 205 168.04 205 166C198.4 166 191.8 166 185 166C185 167.98 185 169.96 185 172C186.98 172 188.96 172 191 172C191.881 199.063 192.091 226.112 192.062 253.188C192.061 254.406 192.061 254.406 192.06 255.649C192.048 265.766 192.028 275.883 192 286C194.31 286 196.62 286 199 286C199 290.95 199 295.9 199 301C201.31 301 203.62 301 206 301C206 303.31 206 305.62 206 308C206.999 307.988 207.998 307.977 209.027 307.965C210.318 307.956 211.608 307.947 212.938 307.938C214.225 307.926 215.513 307.914 216.84 307.902C220 308 220 308 221 309C221.041 311 221.043 313 221 315C221.66 314.67 222.32 314.34 223 314C224.707 313.93 226.417 313.916 228.125 313.938C229.035 313.947 229.945 313.956 230.883 313.965C231.931 313.982 231.931 313.982 233 314C233 312.68 233 311.36 233 310C232.216 310.041 231.433 310.082 230.625 310.125C228 310 228 310 226 308C225.875 305.375 225.875 305.375 226 303C224.793 303.031 224.793 303.031 223.562 303.062C221 303 221 303 220 302C219.927 299.47 219.908 296.967 219.938 294.438C219.942 293.727 219.947 293.016 219.951 292.283C219.963 290.522 219.981 288.761 220 287C222.31 287 224.62 287 227 287C227 291.95 227 296.9 227 302C229.31 302 231.62 302 234 302C234 303.98 234 305.96 234 308C236.31 308 238.62 308 241 308C241.495 311.465 241.495 311.465 242 315C252.395 315.495 252.395 315.495 263 316C263 313.69 263 311.38 263 309C264 308 264 308 266.941 307.902C268.734 307.92 268.734 307.92 270.562 307.938C272.359 307.951 272.359 307.951 274.191 307.965C275.118 307.976 276.045 307.988 277 308C276.979 307.031 276.959 306.061 276.938 305.062C277 302 277 302 278 301C280.31 301 282.62 301 285 301C285 296.38 285 291.76 285 287C287.31 287 289.62 287 292 287C292 249.38 292 211.76 292 173C294.31 173 296.62 173 299 173C299 210.95 299 248.9 299 288C297.02 288 295.04 288 293 288C293 292.62 293 297.24 293 302C290.69 302.33 288.38 302.66 286 303C286.021 303.969 286.041 304.939 286.062 305.938C286 309 286 309 285 310C283 310.041 281 310.043 279 310C278.856 310.804 278.711 311.609 278.562 312.438C278 315 278 315 277 316C274.814 316.073 272.625 316.084 270.438 316.062C268.641 316.049 268.641 316.049 266.809 316.035C265.882 316.024 264.955 316.012 264 316C264 318.31 264 320.62 264 323C249.48 323 234.96 323 220 323C220 320.69 220 318.38 220 316C219.001 316.012 218.002 316.023 216.973 316.035C215.682 316.044 214.392 316.053 213.062 316.062C211.775 316.074 210.487 316.086 209.16 316.098C206 316 206 316 205 315C204.959 313 204.957 311 205 309C202.69 309 200.38 309 198 309C198 306.69 198 304.38 198 302C195.69 302 193.38 302 191 302C191 297.05 191 292.1 191 287C188.69 287 186.38 287 184 287C184 249.05 184 211.1 184 172C181.69 172 179.38 172 177 172C177 169.69 177 167.38 177 165C165.12 165 153.24 165 141 165C141 162.69 141 160.38 141 158Z" fill="#65134E"/>
<path d="M335 216C339.29 216 343.58 216 348 216C348 239.1 348 262.2 348 286C345.36 286 342.72 286 340 286C340 292.93 340 299.86 340 307C338.02 307 336.04 307 334 307C334 311.95 334 316.9 334 322C332.02 322.33 330.04 322.66 328 323C327.67 327.62 327.34 332.24 327 337C324.69 337 322.38 337 320 337C320 339.31 320 341.62 320 344C317.69 344 315.38 344 313 344C313 346.31 313 348.62 313 351C310.69 351 308.38 351 306 351C306 353.31 306 355.62 306 358C301.38 358 296.76 358 292 358C292 360.64 292 363.28 292 366C296.62 366 301.24 366 306 366C306 370.62 306 375.24 306 380C275.31 380 244.62 380 213 380C213 377.69 213 375.38 213 373C222.24 373 231.48 373 241 373C241 370.69 241 368.38 241 366C248.59 366 256.18 366 264 366C264 363.69 264 361.38 264 359C268.62 359 273.24 359 278 359C278 356.69 278 354.38 278 352C282.62 352 287.24 352 292 352C292 349.36 292 346.72 292 344C294.31 344 296.62 344 299 344C299 341.69 299 339.38 299 337C301.31 337 303.62 337 306 337C306 334.69 306 332.38 306 330C308.31 330 310.62 330 313 330C313 327.69 313 325.38 313 323C315.31 323 317.62 323 320 323C320 318.05 320 313.1 320 308C322.31 308 324.62 308 327 308C327 301.07 327 294.14 327 287C329.64 287 332.28 287 335 287C335 263.57 335 240.14 335 216Z" fill="#890E4E"/>
<path d="M359 216C364.94 216 370.88 216 377 216C377 238.77 377 261.54 377 285C374.36 285 371.72 285 369 285C369 292.26 369 299.52 369 307C366.03 307.495 366.03 307.495 363 308C362.67 312.29 362.34 316.58 362 321C359.525 321.495 359.525 321.495 357 322C356.67 329.59 356.34 337.18 356 345C353.69 345 351.38 345 349 345C349 347.31 349 349.62 349 352C346.69 352 344.38 352 342 352C342 354.31 342 356.62 342 359C339.69 359 337.38 359 335 359C335 361.31 335 363.62 335 366C325.76 366 316.52 366 307 366C307 363.69 307 361.38 307 359C308.98 358.67 310.96 358.34 313 358C313.33 356.02 313.66 354.04 314 352C316.31 352 318.62 352 321 352C321 349.69 321 347.38 321 345C322.98 344.67 324.96 344.34 327 344C327.33 342.02 327.66 340.04 328 338C330.64 337.67 333.28 337.34 336 337C336 332.71 336 328.42 336 324C338.31 324 340.62 324 343 324C343 319.38 343 314.76 343 310C345.97 309.01 345.97 309.01 349 308C349.33 301.07 349.66 294.14 350 287C352.31 286.67 354.62 286.34 357 286C357.01 285.138 357.021 284.276 357.031 283.387C357.129 275.279 357.232 267.171 357.339 259.062C357.395 254.893 357.448 250.724 357.497 246.555C357.545 242.535 357.597 238.515 357.653 234.495C357.673 232.958 357.692 231.421 357.709 229.884C357.733 227.739 357.763 225.593 357.795 223.448C357.81 222.224 357.826 221 357.842 219.74C358 217 358 217 359 216Z" fill="#880E4F"/>
<path d="M141 165C152.88 165 164.76 165 177 165C177 167.31 177 169.62 177 172C179.31 172 181.62 172 184 172C184 186.19 184 200.38 184 215C167.5 215 151 215 134 215C134 200.81 134 186.62 134 172C136.31 172 138.62 172 141 172C141 169.69 141 167.38 141 165Z" fill="#FCFCFC"/>
<path d="M306 165C317.88 165 329.76 165 342 165C342 167.64 342 170.28 342 173C344.31 173 346.62 173 349 173C349 186.86 349 200.72 349 215C332.5 215 316 215 299 215C299 200.81 299 186.62 299 172C301.31 172 303.62 172 306 172C306 169.69 306 167.38 306 165Z" fill="#FCFBFC"/>
<path d="M141 158C162.45 158 183.9 158 206 158C206 160.31 206 162.62 206 165C208.31 165 210.62 165 213 165C213 167.31 213 169.62 213 172C210.36 172 207.72 172 205 172C205 170.02 205 168.04 205 166C198.4 166 191.8 166 185 166C185 167.98 185 169.96 185 172C186.98 172 188.96 172 191 172C191 209.62 191 247.24 191 286C189.02 286 187.04 286 185 286C184.827 275.063 184.661 264.125 184.5 253.188C184.488 252.381 184.476 251.575 184.464 250.744C184.079 224.494 183.852 198.252 184 172C181.69 172 179.38 172 177 172C177 169.69 177 167.38 177 165C165.12 165 153.24 165 141 165C141 162.69 141 160.38 141 158Z" fill="#160A53"/>
<path d="M349 165C356.26 165 363.52 165 371 165C371 167.31 371 169.62 371 172C373.31 172 375.62 172 378 172C378 186.19 378 200.38 378 215C370.74 215 363.48 215 356 215C356 201.14 356 187.28 356 173C354.02 173 352.04 173 350 173C350 186.86 350 200.72 350 215C349.67 215 349.34 215 349 215C349 201.14 349 187.28 349 173C346.69 173 344.38 173 342 173C342 172.67 342 172.34 342 172C344.31 172 346.62 172 349 172C349 169.69 349 167.38 349 165Z" fill="#7A9ABE"/>
<path d="M185 166C191.6 166 198.2 166 205 166C205 167.98 205 169.96 205 172C207.64 172 210.28 172 213 172C213 186.19 213 200.38 213 215C205.74 215 198.48 215 191 215C191 200.81 191 186.62 191 172C189.02 172 187.04 172 185 172C185 170.02 185 168.04 185 166Z" fill="#7897BC"/>
<path d="M335 216C339.29 216 343.58 216 348 216C348 239.1 348 262.2 348 286C339 287 339 287 337 286C337 286.66 337 287.32 337 288C336.34 288 335.68 288 335 288C335 264.24 335 240.48 335 216Z" fill="#8A0E4E"/>
<path d="M213 172C215.31 172 217.62 172 220 172C220 209.95 220 247.9 220 287C217.69 287 215.38 287 213 287C213 249.05 213 211.1 213 172Z" fill="#170952"/>
<path d="M378 173C380.31 173 382.62 173 385 173C385 210.62 385 248.24 385 287C382.69 287 380.38 287 378 287C378 249.38 378 211.76 378 173Z" fill="#130C55"/>
<path d="M127 173C129.31 173 131.62 173 134 173C134 210.62 134 248.24 134 287C131.69 287 129.38 287 127 287C127 249.38 127 211.76 127 173Z" fill="#150F56"/>
<path d="M292 173C293.98 173 295.96 173 298 173C298 210.29 298 247.58 298 286C296.02 286 294.04 286 292 286C292 248.71 292 211.42 292 173Z" fill="#100D56"/>
<path d="M279 367C282.63 367 286.26 367 290 367C290 368.98 290 370.96 290 373C295.28 373 300.56 373 306 373C306 375.31 306 377.62 306 380C275.31 380 244.62 380 213 380C213 378.02 213 376.04 213 374C234.78 374 256.56 374 279 374C279 371.69 279 369.38 279 367Z" fill="#130C55"/>
<path d="M141 158C162.45 158 183.9 158 206 158C206 160.31 206 162.62 206 165C208.31 165 210.62 165 213 165C213 167.31 213 169.62 213 172C210.36 172 207.72 172 205 172C205 170.02 205 168.04 205 166C198.4 166 191.8 166 185 166C185 182.17 185 198.34 185 215C184.67 215 184.34 215 184 215C184 200.81 184 186.62 184 172C181.69 172 179.38 172 177 172C177 169.69 177 167.38 177 165C165.12 165 153.24 165 141 165C141 162.69 141 160.38 141 158Z" fill="#130C54"/>
<path d="M357 215C363.93 215 370.86 215 378 215C378 245.69 378 276.38 378 308C375.69 308 373.38 308 371 308C371 312.95 371 317.9 371 323C368.36 323 365.72 323 363 323C363 327.62 363 332.24 363 337C360.69 337 358.38 337 356 337C355.973 334.521 355.953 332.042 355.937 329.562C355.925 328.502 355.925 328.502 355.912 327.42C355.903 325.613 355.948 323.806 356 322C357 321 357 321 359.562 320.938C360.367 320.958 361.171 320.979 362 321C361.988 320.073 361.977 319.146 361.965 318.191C361.956 316.994 361.947 315.796 361.937 314.562C361.926 313.368 361.914 312.173 361.902 310.941C362 308 362 308 363 307C364.98 307 366.96 307 369 307C369 299.74 369 292.48 369 285C371.64 285 374.28 285 377 285C377 262.23 377 239.46 377 216C371.06 216.33 365.12 216.66 359 217C358.67 239.77 358.34 262.54 358 286C357.67 286 357.34 286 357 286C357 262.57 357 239.14 357 215Z" fill="#741558"/>
<path d="M350 173C351.98 173 353.96 173 356 173C356.155 199.713 355.893 226.415 355.5 253.125C355.488 253.938 355.476 254.751 355.464 255.589C355.314 265.726 355.159 275.863 355 286C353.35 286 351.7 286 350 286C350 248.71 350 211.42 350 173Z" fill="#130952"/>
<path d="M327 323C329.64 323 332.28 323 335 323C335.027 325.312 335.046 327.625 335.062 329.938C335.074 331.225 335.086 332.513 335.098 333.84C335 337 335 337 334 338C332 338.041 330 338.043 328 338C328.021 338.969 328.041 339.939 328.062 340.938C328 344 328 344 327 345C325 345.041 323 345.043 321 345C321 347.31 321 349.62 321 352C318.69 352 316.38 352 314 352C314.021 352.969 314.041 353.939 314.062 354.938C314 358 314 358 313 359C311 359.041 309 359.043 307 359C307 361.31 307 363.62 307 366C311.29 366 315.58 366 320 366C320 368.31 320 370.62 320 373C315.38 373 310.76 373 306 373C306 370.69 306 368.38 306 366C301.38 366 296.76 366 292 366C292 363.36 292 360.72 292 358C296.62 358 301.24 358 306 358C306 355.69 306 353.38 306 351C308.31 351 310.62 351 313 351C313 348.69 313 346.38 313 344C315.31 344 317.62 344 320 344C320 341.69 320 339.38 320 337C322.31 337 324.62 337 327 337C327 332.38 327 327.76 327 323Z" fill="#41094F"/>
<path d="M278 352C282.62 352 287.24 352 292 352C292 352.33 292 352.66 292 353C287.71 353 283.42 353 279 353C279 354.98 279 356.96 279 359C278.67 359 278.34 359 278 359C278 356.69 278 354.38 278 352ZM264 359C268.62 359 273.24 359 278 359C278 362.581 277.656 364.475 276.5 367.75C276.222 368.549 275.943 369.348 275.656 370.172C275.44 370.775 275.223 371.378 275 372C275.99 372.33 276.98 372.66 278 373C278 370.69 278 368.38 278 366C287.24 366 296.48 366 306 366C306 368.31 306 370.62 306 373C300.72 373 295.44 373 290 373C290 371.02 290 369.04 290 367C286.37 367 282.74 367 279 367C279 369.31 279 371.62 279 374C257.22 374 235.44 374 213 374C213 373.67 213 373.34 213 373C222.24 373 231.48 373 241 373C241 370.69 241 368.38 241 366C248.59 366 256.18 366 264 366C264 363.69 264 361.38 264 359Z" fill="#8C0D4C"/>
<path d="M307 158C328.12 158 349.24 158 371 158C371 160.31 371 162.62 371 165C363.74 165 356.48 165 349 165C349 167.31 349 169.62 349 172C346.69 172 344.38 172 342 172C342 169.36 342 166.72 342 164C330.45 164 318.9 164 307 164C307 162.02 307 160.04 307 158Z" fill="#121057"/>
<path d="M299 222C301.31 222 303.62 222 306 222C306 243.45 306 264.9 306 287C303.69 287 301.38 287 299 287C299 265.55 299 244.1 299 222Z" fill="#EBC2D2"/>
<path d="M134 222C136.31 222 138.62 222 141 222C141 243.45 141 264.9 141 287C138.69 287 136.38 287 134 287C134 265.55 134 244.1 134 222Z" fill="#F0C6D6"/>
<path d="M148 323C150.97 323 153.94 323 157 323C157 327.29 157 331.58 157 336C159.31 336.33 161.62 336.66 164 337C164 338.98 164 340.96 164 343C166.31 343 168.62 343 171 343C171 345.31 171 347.62 171 350C173.31 350 175.62 350 178 350C178 352.97 178 355.94 178 359C182.29 359 186.58 359 191 359C191 361.31 191 363.62 191 366C186.38 366 181.76 366 177 366C177 363.69 177 361.38 177 359C174.69 359 172.38 359 170 359C170 356.69 170 354.38 170 352C167.69 352 165.38 352 163 352C163 349.69 163 347.38 163 345C160.36 345 157.72 345 155 345C155 342.36 155 339.72 155 337C152.69 337 150.38 337 148 337C148 332.38 148 327.76 148 323Z" fill="#AC2A50"/>
<path d="M213 172C215.31 172 217.62 172 220 172C220 209.95 220 247.9 220 287C219.67 287 219.34 287 219 287C218.99 286.115 218.979 285.23 218.969 284.318C218.871 275.989 218.768 267.661 218.661 259.332C218.605 255.05 218.552 250.768 218.503 246.485C218.455 242.355 218.403 238.225 218.347 234.095C218.327 232.517 218.308 230.938 218.291 229.36C218.267 227.155 218.237 224.95 218.205 222.745C218.19 221.488 218.174 220.231 218.158 218.936C218.199 216.066 218.199 216.066 217 214C215.02 214.495 215.02 214.495 213 215C213 200.81 213 186.62 213 172Z" fill="#0E155B"/>
<path d="M184 215C184.33 215 184.66 215 185 215C185 238.43 185 261.86 185 286C186.98 286 188.96 286 191 286C191 262.57 191 239.14 191 215C191.33 215 191.66 215 192 215C192 238.43 192 261.86 192 286C194.31 286 196.62 286 199 286C199 290.95 199 295.9 199 301C201.31 301 203.62 301 206 301C206 305.62 206 310.24 206 315C205.67 315 205.34 315 205 315C205 313.02 205 311.04 205 309C202.69 309 200.38 309 198 309C198 306.69 198 304.38 198 302C195.69 302 193.38 302 191 302C191 297.05 191 292.1 191 287C188.69 287 186.38 287 184 287C184 263.24 184 239.48 184 215Z" fill="#62124A"/>
<path d="M298 173C298.33 173 298.66 173 299 173C299 210.95 299 248.9 299 288C297.02 288 295.04 288 293 288C293 292.62 293 297.24 293 302C290.69 302.33 288.38 302.66 286 303C286.021 303.969 286.041 304.939 286.062 305.938C286 309 286 309 285 310C283 310.041 281 310.043 279 310C278.67 311.65 278.34 313.3 278 315C277.67 315 277.34 315 277 315C276.973 312.854 276.954 310.708 276.938 308.562C276.926 307.368 276.914 306.173 276.902 304.941C277 302 277 302 278 301C280.31 301 282.62 301 285 301C285 296.38 285 291.76 285 287C291.435 286.505 291.435 286.505 298 286C298 248.71 298 211.42 298 173Z" fill="#642A5B"/>
<path d="M234 308C236.31 308 238.62 308 241 308C241.33 310.31 241.66 312.62 242 315C248.93 315.33 255.86 315.66 263 316C263 317.98 263 319.96 263 322C249.14 322 235.28 322 221 322C221 320.02 221 318.04 221 316C225.29 316 229.58 316 234 316C234 313.36 234 310.72 234 308Z" fill="#150B53"/>
<path d="M348 337C350.64 337 353.28 337 356 337C356 339.64 356 342.28 356 345C353.69 345 351.38 345 349 345C349 347.31 349 349.62 349 352C346.69 352 344.38 352 342 352C342 354.31 342 356.62 342 359C339.69 359 337.38 359 335 359C335 361.31 335 363.62 335 366C330.05 366 325.1 366 320 366C320.33 363.69 320.66 361.38 321 359C325.29 359 329.58 359 334 359C334 356.03 334 353.06 334 350C336.31 350 338.62 350 341 350C341 347.69 341 345.38 341 343C343.31 343 345.62 343 348 343C348 341.02 348 339.04 348 337Z" fill="#601055"/>
<path d="M348 216C348.33 216 348.66 216 349 216C349 239.43 349 262.86 349 287C346.69 287 344.38 287 342 287C342 293.93 342 300.86 342 308C344.31 308 346.62 308 349 308C348.67 308.66 348.34 309.32 348 310C346.35 310 344.7 310 343 310C343 314.62 343 319.24 343 324C340.69 324 338.38 324 336 324C336 328.29 336 332.58 336 337C335.67 337 335.34 337 335 337C335 332.38 335 327.76 335 323C332.69 323 330.38 323 328 323C328 322.67 328 322.34 328 322C329.98 322 331.96 322 334 322C334 317.05 334 312.1 334 307C335.98 307 337.96 307 340 307C340 300.07 340 293.14 340 286C342.64 286 345.28 286 348 286C348 262.9 348 239.8 348 216Z" fill="#6F1358"/>
<path d="M141 158C162.45 158 183.9 158 206 158C206 160.31 206 162.62 206 165C208.31 165 210.62 165 213 165C213 167.31 213 169.62 213 172C210.36 172 207.72 172 205 172C205 170.02 205 168.04 205 166C198.4 166 191.8 166 185 166C185 182.17 185 198.34 185 215C184.67 215 184.34 215 184 215C184 198.17 184 181.34 184 164C190.93 164 197.86 164 205 164C205 162.35 205 160.7 205 159C184.21 159 163.42 159 142 159C142 160.65 142 162.3 142 164C153.55 164 165.1 164 177 164C177 164.33 177 164.66 177 165C165.12 165 153.24 165 141 165C141 162.69 141 160.38 141 158Z" fill="#1F2B68"/>
<path d="M364 308C366.31 308 368.62 308 371 308C371 312.95 371 317.9 371 323C368.36 323 365.72 323 363 323C363 327.62 363 332.24 363 337C360.69 337 358.38 337 356 337C356 332.05 356 327.1 356 322C358.31 322 360.62 322 363 322C362.988 321.073 362.977 320.146 362.965 319.191C362.956 317.994 362.947 316.796 362.938 315.562C362.926 314.368 362.914 313.173 362.902 311.941C363 309 363 309 364 308Z" fill="#120A51"/>
<path d="M278 366C287.24 366 296.48 366 306 366C306 368.31 306 370.62 306 373C300.72 373 295.44 373 290 373C290 371.02 290 369.04 290 367C286.37 367 282.74 367 279 367C279 369.31 279 371.62 279 374C257.22 374 235.44 374 213 374C213 373.67 213 373.34 213 373C234.45 373 255.9 373 278 373C278 370.69 278 368.38 278 366Z" fill="#40094A"/>
<path d="M134 215C150.5 215 167 215 184 215C184 238.76 184 262.52 184 287C183.34 287 182.68 287 182 287C182 263.9 182 240.8 182 217C166.16 216.67 150.32 216.34 134 216C134 215.67 134 215.34 134 215Z" fill="#D23B53"/>
<path d="M314 352C316.64 352 319.28 352 322 352C321.34 353.65 320.68 355.3 320 357C324.62 357 329.24 357 334 357C334 357.66 334 358.32 334 359C329.71 359 325.42 359 321 359C321 360.98 321 362.96 321 365C320 366 320 366 317.059 366.098C315.266 366.08 315.266 366.08 313.438 366.062C311.641 366.049 311.641 366.049 309.809 366.035C308.882 366.024 307.955 366.012 307 366C307 363.69 307 361.38 307 359C308.98 358.67 310.96 358.34 313 358C313.33 356.02 313.66 354.04 314 352Z" fill="#791052"/>
<path d="M191 366C198.26 366 205.52 366 213 366C213 368.31 213 370.62 213 373C205.74 373 198.48 373 191 373C191 370.69 191 368.38 191 366Z" fill="#1D1055"/>
<path d="M335 352C337.31 352 339.62 352 342 352C342 354.31 342 356.62 342 359C339.69 359 337.38 359 335 359C335 361.31 335 363.62 335 366C330.05 366 325.1 366 320 366C320.33 363.69 320.66 361.38 321 359C327.435 358.505 327.435 358.505 334 358C334.33 356.02 334.66 354.04 335 352Z" fill="#140951"/>
<path d="M170 352C172.31 352 174.62 352 177 352C177.33 353.98 177.66 355.96 178 358C182.29 358.33 186.58 358.66 191 359C191 361.31 191 363.62 191 366C186.38 366 181.76 366 177 366C177 363.69 177 361.38 177 359C174.69 359 172.38 359 170 359C170 356.69 170 354.38 170 352Z" fill="#19175B"/>
<path d="M291 345C291.33 345 291.66 345 292 345C292 347.31 292 349.62 292 352C287.38 352 282.76 352 278 352C278 354.31 278 356.62 278 359C273.38 359 268.76 359 264 359C264 361.31 264 363.62 264 366C256.41 366 248.82 366 241 366C241 368.31 241 370.62 241 373C231.76 373 222.52 373 213 373C213 370.69 213 368.38 213 366C213.66 366.33 214.32 366.66 215 367C215 368.32 215 369.64 215 371C222.92 371 230.84 371 239 371C239 369.35 239 367.7 239 366C240 365 240 365 242.225 364.886C243.183 364.892 244.142 364.897 245.129 364.902C246.681 364.907 246.681 364.907 248.264 364.912C249.352 364.92 250.441 364.929 251.562 364.938C253.201 364.944 253.201 364.944 254.873 364.951C257.582 364.963 260.291 364.979 263 365C263 362.69 263 360.38 263 358C267.62 358 272.24 358 277 358C277 355.69 277 353.38 277 351C281.62 351 286.24 351 291 351C291 349.02 291 347.04 291 345Z" fill="#C5284A"/>
<path d="M371 287C373.31 287 375.62 287 378 287C378 293.93 378 300.86 378 308C375.69 308 373.38 308 371 308C371 301.07 371 294.14 371 287Z" fill="#140C54"/>
<path d="M342 287C344.31 287 346.62 287 349 287C349 293.93 349 300.86 349 308C346.69 308 344.38 308 342 308C342 301.07 342 294.14 342 287Z" fill="#1E074F"/>
<path d="M134 287C136.31 287 138.62 287 141 287C141 293.93 141 300.86 141 308C138.69 308 136.38 308 134 308C134 301.07 134 294.14 134 287Z" fill="#180D53"/>
<path d="M349 165C356.26 165 363.52 165 371 165C371 167.31 371 169.62 371 172C370.67 172 370.34 172 370 172C370 170.02 370 168.04 370 166C363.4 166 356.8 166 350 166C350 167.98 350 169.96 350 172C352.31 172 354.62 172 357 172C357 186.19 357 200.38 357 215C356.67 215 356.34 215 356 215C356 201.14 356 187.28 356 173C354.02 173 352.04 173 350 173C350 186.86 350 200.72 350 215C349.67 215 349.34 215 349 215C349 201.14 349 187.28 349 173C346.69 173 344.38 173 342 173C342 172.67 342 172.34 342 172C344.31 172 346.62 172 349 172C349 169.69 349 167.38 349 165Z" fill="#636A96"/>
<path d="M184 165C193.57 165 203.14 165 213 165C213 167.31 213 169.62 213 172C210.36 172 207.72 172 205 172C205 170.02 205 168.04 205 166C198.4 166 191.8 166 185 166C185 182.17 185 198.34 185 215C184.67 215 184.34 215 184 215C184 198.5 184 182 184 165Z" fill="#606591"/>
<path d="M292 366C296.62 366 301.24 366 306 366C306 368.31 306 370.62 306 373C301.38 373 296.76 373 292 373C292 370.69 292 368.38 292 366Z" fill="#860A4B"/>
<path d="M148 323C150.31 323 152.62 323 155 323C155 327.62 155 332.24 155 337C152.69 337 150.38 337 148 337C148 332.38 148 327.76 148 323Z" fill="#150E53"/>
<path d="M335 309C337.31 309 339.62 309 342 309C342 313.62 342 318.24 342 323C339.69 323 337.38 323 335 323C335 318.38 335 313.76 335 309Z" fill="#1F064F"/>
<path d="M141 309C143.31 309 145.62 309 148 309C148 313.62 148 318.24 148 323C145.69 323 143.38 323 141 323C141 318.38 141 313.76 141 309Z" fill="#181157"/>
<path d="M206 308C210.62 308 215.24 308 220 308C220 310.31 220 312.62 220 315C215.38 315 210.76 315 206 315C206 312.69 206 310.38 206 308Z" fill="#24074D"/>
<path d="M285 287C287.31 287 289.62 287 292 287C292 291.62 292 296.24 292 301C289.69 301 287.38 301 285 301C285 296.38 285 291.76 285 287Z" fill="#0F0F58"/>
<path d="M220 287C222.31 287 224.62 287 227 287C227 291.62 227 296.24 227 301C224.69 301 222.38 301 220 301C220 296.38 220 291.76 220 287Z" fill="#180D54"/>
<path d="M266.941 307.902C268.734 307.92 268.734 307.92 270.562 307.938C272.359 307.951 272.359 307.951 274.191 307.965C275.118 307.976 276.045 307.988 277 308C277 310.31 277 312.62 277 315C272.38 315 267.76 315 263 315C263 308.033 263 308.033 266.941 307.902Z" fill="#171559"/>
<path d="M292 359C296.62 359 301.24 359 306 359C306 360.98 306 362.96 306 365C301.38 365 296.76 365 292 365C292 363.02 292 361.04 292 359Z" fill="#1B0650"/>
<path d="M192 287C193.98 287 195.96 287 198 287C198 291.62 198 296.24 198 301C196.02 301 194.04 301 192 301C192 296.38 192 291.76 192 287Z" fill="#25054A"/>
<path d="M370 308C370.33 308 370.66 308 371 308C371 312.95 371 317.9 371 323C368.69 323 366.38 323 364 323C364.33 318.71 364.66 314.42 365 310C366.65 310 368.3 310 370 310C370 309.34 370 308.68 370 308Z" fill="#12175E"/>
<path d="M307 367C311.29 367 315.58 367 320 367C320 368.98 320 370.96 320 373C315.71 373 311.42 373 307 373C307 371.02 307 369.04 307 367Z" fill="#111059"/>
<path d="M335 352C337.31 352 339.62 352 342 352C342 354.31 342 356.62 342 359C339.69 359 337.38 359 335 359C335 361.31 335 363.62 335 366C330.05 366 325.1 366 320 366C320 365.67 320 365.34 320 365C324.62 365 329.24 365 334 365C334.33 360.71 334.66 356.42 335 352Z" fill="#161F63"/>
<path d="M306 352C306.33 352 306.66 352 307 352C307 353.98 307 355.96 307 358C308.98 358 310.96 358 313 358C313 358.33 313 358.66 313 359C311.02 359 309.04 359 307 359C307 361.31 307 363.62 307 366C311.29 366 315.58 366 320 366C320 366.33 320 366.66 320 367C315.71 367 311.42 367 307 367C307 368.98 307 370.96 307 373C306.67 373 306.34 373 306 373C306 370.69 306 368.38 306 366C301.38 366 296.76 366 292 366C292 365.67 292 365.34 292 365C296.62 365 301.24 365 306 365C306 363.02 306 361.04 306 359C301.38 359 296.76 359 292 359C292 358.67 292 358.34 292 358C296.62 358 301.24 358 306 358C306 356.02 306 354.04 306 352Z" fill="#46094E"/>
<path d="M291 360C291.33 360 291.66 360 292 360C292 361.98 292 363.96 292 366C287.38 366 282.76 366 278 366C278 368.31 278 370.62 278 373C266.78 373 255.56 373 244 373C244 372.67 244 372.34 244 372C259.345 371.505 259.345 371.505 275 371C275.66 369.02 276.32 367.04 277 365C281.62 365 286.24 365 291 365C291 363.35 291 361.7 291 360Z" fill="#671055"/>
<path d="M367.062 307.938C368.517 307.968 368.517 307.968 370 308C370 308.66 370 309.32 370 310C368.35 310 366.7 310 365 310C365.012 310.855 365.023 311.709 365.035 312.59C365.044 313.695 365.053 314.799 365.062 315.938C365.074 317.04 365.086 318.142 365.098 319.277C365 322 365 322 364 323C361.69 323 359.38 323 357 323C357 327.62 357 332.24 357 337C356.67 337 356.34 337 356 337C356 332.05 356 327.1 356 322C358.31 322 360.62 322 363 322C362.988 321.073 362.977 320.146 362.965 319.191C362.956 317.994 362.947 316.796 362.938 315.562C362.926 314.368 362.914 313.173 362.902 311.941C363.033 308.02 363.033 308.02 367.062 307.938Z" fill="#450950"/>
<path d="M299 337C301.31 337 303.62 337 306 337C306 337.66 306 338.32 306 339C304.35 339 302.7 339 301 339C301 340.98 301 342.96 301 345C299 346 297 347 295 348C293.866 350.017 293.866 350.017 293 352C292.67 352 292.34 352 292 352C292 349.36 292 346.72 292 344C294.31 344 296.62 344 299 344C299 341.69 299 339.38 299 337Z" fill="#9E1043"/>
<path d="M155 337C157.31 337.33 159.62 337.66 162 338C162.33 340.31 162.66 342.62 163 345C160.36 345 157.72 345 155 345C155 342.36 155 339.72 155 337Z" fill="#191A5D"/>
<path d="M342 345C344.31 345 346.62 345 349 345C349 347.31 349 349.62 349 352C346.69 352 344.38 352 342 352C342 349.69 342 347.38 342 345Z" fill="#181357"/>
<path d="M163 345C165.31 345 167.62 345 170 345C170 347.31 170 349.62 170 352C167.69 352 165.38 352 163 352C163 349.69 163 347.38 163 345Z" fill="#1E1253"/>
<path d="M199 301C201.31 301 203.62 301 206 301C206 303.31 206 305.62 206 308C203.69 308 201.38 308 199 308C199 305.69 199 303.38 199 301Z" fill="#2B074D"/>
<path d="M206 165C208.31 165 210.62 165 213 165C213 167.31 213 169.62 213 172C210.69 172 208.38 172 206 172C206 169.69 206 167.38 206 165Z" fill="#172A6B"/>
<path d="M134 165C136.31 165 138.62 165 141 165C141 167.31 141 169.62 141 172C138.69 172 136.38 172 134 172C134 169.69 134 167.38 134 165Z" fill="#181A5B"/>
<path d="M371 165C373.31 165 375.62 165 378 165C378 167.31 378 169.62 378 172C375.69 172 373.38 172 371 172C371 169.69 371 167.38 371 165Z" fill="#11175B"/>
<path d="M299 165C301.31 165 303.62 165 306 165C306 167.31 306 169.62 306 172C303.69 172 301.38 172 299 172C299 169.69 299 167.38 299 165Z" fill="#171F60"/>
<path d="M281.063 300.938C282.517 300.968 282.517 300.968 284 301C284 303.31 284 305.62 284 308C281.69 308 279.38 308 277 308C276.957 306 276.959 304 277 302C278 301 278 301 281.063 300.938Z" fill="#112D6D"/>
<path d="M134 216C136.64 216 139.28 216 142 216C142 217.98 142 219.96 142 222C139.36 222 136.72 222 134 222C134 220.02 134 218.04 134 216Z" fill="#DC2E45"/>
<path d="M329 324C330.32 324 331.64 324 333 324C333 327.96 333 331.92 333 336C331.68 335.67 330.36 335.34 329 335C329 331.37 329 327.74 329 324Z" fill="#110A55"/>
<path d="M327 287C329.64 287 332.28 287 335 287C334.67 287.66 334.34 288.32 334 289C332.35 289 330.7 289 329 289C329.012 289.785 329.023 290.57 329.035 291.379C329.084 297.037 329.013 302.429 328 308C327.67 308 327.34 308 327 308C327 301.07 327 294.14 327 287Z" fill="#A41646"/>
<path d="M350 338C351.98 338 353.96 338 356 338C356 340.31 356 342.62 356 345C353.69 345 351.38 345 349 345C349.33 342.69 349.66 340.38 350 338Z" fill="#161359"/>
<path d="M170 352C172.31 352 174.62 352 177 352C177 353.98 177 355.96 177 358C174.69 358 172.38 358 170 358C170 356.02 170 354.04 170 352Z" fill="#1D0A4E"/>
<path d="M193 289C194.32 289 195.64 289 197 289C197 292.3 197 295.6 197 299C195.68 299 194.36 299 193 299C193 295.7 193 292.4 193 289Z" fill="#130953"/>
<path d="M291 287C291.33 287 291.66 287 292 287C292 291.62 292 296.24 292 301C289.69 301 287.38 301 285 301C285.66 300.01 286.32 299.02 287 298C287.99 298 288.98 298 290 298C289.988 297.29 289.977 296.579 289.965 295.848C289.951 294.469 289.951 294.469 289.938 293.062C289.926 292.146 289.914 291.229 289.902 290.285C290 288 290 288 291 287Z" fill="#360943"/>
<path d="M307 352C308.98 352 310.96 352 313 352C313 353.98 313 355.96 313 358C311.02 358 309.04 358 307 358C307 356.02 307 354.04 307 352Z" fill="#1B0650"/>
<path d="M314 345C315.98 345 317.96 345 320 345C320 346.98 320 348.96 320 351C318.02 351 316.04 351 314 351C314 349.02 314 347.04 314 345Z" fill="#1D0650"/>
<path d="M321 338C322.98 338 324.96 338 327 338C327 339.98 327 341.96 327 344C325.02 344 323.04 344 321 344C321 342.02 321 340.04 321 338Z" fill="#190750"/>
<path d="M228 302C229.98 302 231.96 302 234 302C234 303.98 234 305.96 234 308C232.02 308 230.04 308 228 308C228 306.02 228 304.04 228 302Z" fill="#140C53"/>
<path d="M220 301C222.333 300.958 224.667 300.959 227 301C228 302 228 302 228.062 305.063C228.042 306.032 228.021 307.001 228 308C229.98 308 231.96 308 234 308C234 308.33 234 308.66 234 309C231.667 309.042 229.333 309.041 227 309C226 308 226 308 225.938 305.438C225.958 304.633 225.979 303.829 226 303C224.35 303 222.7 303 221 303C220.67 302.34 220.34 301.68 220 301Z" fill="#591055"/>
<path d="M284 302C284 303.98 284 305.96 284 308C282.02 308 280.04 308 278 308C278 307.34 278 306.68 278 306C282.588 302 282.588 302 284 302Z" fill="#200749"/>
<path d="M209 166C209.99 166 210.98 166 212 166C212 167.65 212 169.3 212 171C210.35 171 208.7 171 207 171C207.875 167.125 207.875 167.125 209 166Z" fill="#110B53"/>
</svg>
