<?xml version="1.0" encoding="UTF-8"?>
<svg version="1.1" xmlns="http://www.w3.org/2000/svg" width="512" height="512">
<path d="M0 0 C168.96 0 337.92 0 512 0 C512 168.96 512 337.92 512 512 C343.04 512 174.08 512 0 512 C0 343.04 0 174.08 0 0 Z " fill="#2D85C0" transform="translate(0,0)"/>
<path d="M0 0 C21.45 0 42.9 0 65 0 C65 2.31 65 4.62 65 7 C67.31 7 69.62 7 72 7 C72 9.31 72 11.62 72 14 C74.31 14 76.62 14 79 14 C79 51.95 79 89.9 79 129 C81.31 129 83.62 129 86 129 C86 133.95 86 138.9 86 144 C88.31 144 90.62 144 93 144 C93 145.98 93 147.96 93 150 C95.31 150 97.62 150 100 150 C100.495 153.465 100.495 153.465 101 157 C111.395 157.495 111.395 157.495 122 158 C122 155.69 122 153.38 122 151 C123 150 123 150 125.94140625 149.90234375 C127.73384766 149.91974609 127.73384766 149.91974609 129.5625 149.9375 C131.35880859 149.95103516 131.35880859 149.95103516 133.19140625 149.96484375 C134.11824219 149.97644531 135.04507813 149.98804688 136 150 C135.979375 149.030625 135.95875 148.06125 135.9375 147.0625 C136 144 136 144 137 143 C139.31 143 141.62 143 144 143 C144 138.38 144 133.76 144 129 C146.31 129 148.62 129 151 129 C151 91.38 151 53.76 151 15 C153.31 15 155.62 15 158 15 C158 28.86 158 42.72 158 57 C174.83 57 191.66 57 209 57 C209 43.14 209 29.28 209 15 C210.98 15 212.96 15 215 15 C215 28.86 215 42.72 215 57 C222.26 57 229.52 57 237 57 C237 43.14 237 29.28 237 15 C239.31 15 241.62 15 244 15 C244 52.62 244 90.24 244 129 C241.69 129 239.38 129 237 129 C237 135.93 237 142.86 237 150 C234.69 150 232.38 150 230 150 C230 154.95 230 159.9 230 165 C227.36 165 224.72 165 222 165 C222 169.62 222 174.24 222 179 C219.69 179 217.38 179 215 179 C215 181.64 215 184.28 215 187 C212.69 187 210.38 187 208 187 C208 189.31 208 191.62 208 194 C205.69 194 203.38 194 201 194 C201 196.31 201 198.62 201 201 C198.69 201 196.38 201 194 201 C194 203.31 194 205.62 194 208 C189.05 208 184.1 208 179 208 C179 210.31 179 212.62 179 215 C174.38 215 169.76 215 165 215 C165 217.31 165 219.62 165 222 C134.31 222 103.62 222 72 222 C72 217.38 72 212.76 72 208 C60.12 208 48.24 208 36 208 C36 205.69 36 203.38 36 201 C33.69 201 31.38 201 29 201 C29 198.69 29 196.38 29 194 C26.69 194 24.38 194 22 194 C22 191.69 22 189.38 22 187 C19.36 187 16.72 187 14 187 C14 184.36 14 181.72 14 179 C11.69 179 9.38 179 7 179 C7 169.76 7 160.52 7 151 C4.69 151 2.38 151 0 151 C0 122.29 0 93.58 0 64 C-2.31 64 -4.62 64 -7 64 C-7 61.69 -7 59.38 -7 57 C9.5 57 26 57 43 57 C43 42.81 43 28.62 43 14 C40.69 14 38.38 14 36 14 C36 11.69 36 9.38 36 7 C24.12 7 12.24 7 0 7 C0 4.69 0 2.38 0 0 Z " fill="#E52C40" transform="translate(141,158)"/>
<path d="M0 0 C1.98 0 3.96 0 6 0 C6 13.86 6 27.72 6 42 C13.26 42 20.52 42 28 42 C28 28.14 28 14.28 28 0 C30.31 0 32.62 0 35 0 C35 37.62 35 75.24 35 114 C32.69 114 30.38 114 28 114 C28 120.93 28 127.86 28 135 C25.69 135 23.38 135 21 135 C21 139.95 21 144.9 21 150 C18.36 150 15.72 150 13 150 C13 154.62 13 159.24 13 164 C10.69 164 8.38 164 6 164 C6 166.64 6 169.28 6 172 C3.69 172 1.38 172 -1 172 C-1 174.31 -1 176.62 -1 179 C-3.31 179 -5.62 179 -8 179 C-8 181.31 -8 183.62 -8 186 C-10.31 186 -12.62 186 -15 186 C-15 188.31 -15 190.62 -15 193 C-19.95 193 -24.9 193 -30 193 C-30 195.31 -30 197.62 -30 200 C-34.62 200 -39.24 200 -44 200 C-44 202.31 -44 204.62 -44 207 C-74.69 207 -105.38 207 -137 207 C-137 204.69 -137 202.38 -137 200 C-127.76 200 -118.52 200 -109 200 C-109 197.69 -109 195.38 -109 193 C-101.41 193 -93.82 193 -86 193 C-86 190.69 -86 188.38 -86 186 C-81.38 186 -76.76 186 -72 186 C-72 183.69 -72 181.38 -72 179 C-67.38 179 -62.76 179 -58 179 C-58 176.36 -58 173.72 -58 171 C-55.69 171 -53.38 171 -51 171 C-51 168.69 -51 166.38 -51 164 C-48.69 164 -46.38 164 -44 164 C-44 161.69 -44 159.38 -44 157 C-41.69 157 -39.38 157 -37 157 C-37 154.69 -37 152.38 -37 150 C-34.69 150 -32.38 150 -30 150 C-30 145.05 -30 140.1 -30 135 C-27.69 135 -25.38 135 -23 135 C-23 128.07 -23 121.14 -23 114 C-20.36 114 -17.72 114 -15 114 C-15 90.57 -15 67.14 -15 43 C-10.38 42.67 -5.76 42.34 -1 42 C-0.67 28.14 -0.34 14.28 0 0 Z " fill="#3F0950" transform="translate(350,173)"/>
<path d="M0 0 C21.45 0 42.9 0 65 0 C65 2.31 65 4.62 65 7 C67.31 7 69.62 7 72 7 C72 9.31 72 11.62 72 14 C74.31 14 76.62 14 79 14 C79 51.95 79 89.9 79 129 C81.31 129 83.62 129 86 129 C86 133.95 86 138.9 86 144 C88.31 144 90.62 144 93 144 C93 145.98 93 147.96 93 150 C95.31 150 97.62 150 100 150 C100.495 153.465 100.495 153.465 101 157 C111.395 157.495 111.395 157.495 122 158 C122 155.69 122 153.38 122 151 C123 150 123 150 125.94140625 149.90234375 C127.73384766 149.91974609 127.73384766 149.91974609 129.5625 149.9375 C131.35880859 149.95103516 131.35880859 149.95103516 133.19140625 149.96484375 C134.11824219 149.97644531 135.04507813 149.98804688 136 150 C135.979375 149.030625 135.95875 148.06125 135.9375 147.0625 C136 144 136 144 137 143 C139.31 143 141.62 143 144 143 C144 138.38 144 133.76 144 129 C146.31 129 148.62 129 151 129 C151 91.38 151 53.76 151 15 C153.31 15 155.62 15 158 15 C158 52.95 158 90.9 158 130 C156.02 130 154.04 130 152 130 C152 134.62 152 139.24 152 144 C149.69 144.33 147.38 144.66 145 145 C145.020625 145.969375 145.04125 146.93875 145.0625 147.9375 C145 151 145 151 144 152 C142.00041636 152.04080783 139.99954746 152.04254356 138 152 C137.855625 152.804375 137.71125 153.60875 137.5625 154.4375 C137 157 137 157 136 158 C133.81360547 158.07258946 131.62499611 158.08373783 129.4375 158.0625 C127.64119141 158.04896484 127.64119141 158.04896484 125.80859375 158.03515625 C124.88175781 158.02355469 123.95492187 158.01195312 123 158 C123 160.31 123 162.62 123 165 C108.48 165 93.96 165 79 165 C79 162.69 79 160.38 79 158 C78.00097656 158.01160156 77.00195312 158.02320313 75.97265625 158.03515625 C74.68230469 158.04417969 73.39195312 158.05320312 72.0625 158.0625 C70.77472656 158.07410156 69.48695313 158.08570313 68.16015625 158.09765625 C65 158 65 158 64 157 C63.95919217 155.00041636 63.95745644 152.99954746 64 151 C61.69 151 59.38 151 57 151 C57 148.69 57 146.38 57 144 C54.69 144 52.38 144 50 144 C50 139.05 50 134.1 50 129 C47.69 129 45.38 129 43 129 C43 91.05 43 53.1 43 14 C40.69 14 38.38 14 36 14 C36 11.69 36 9.38 36 7 C24.12 7 12.24 7 0 7 C0 4.69 0 2.38 0 0 Z " fill="#850E50" transform="translate(141,158)"/>
<path d="M0 0 C21.45 0 42.9 0 65 0 C65 2.31 65 4.62 65 7 C67.31 7 69.62 7 72 7 C72 9.31 72 11.62 72 14 C69.36 14 66.72 14 64 14 C64 12.02 64 10.04 64 8 C57.4 8 50.8 8 44 8 C44 9.98 44 11.96 44 14 C45.98 14 47.96 14 50 14 C50.88079911 41.06348973 51.09123858 68.11216861 51.0625 95.1875 C51.06121597 96.40579435 51.06121597 96.40579435 51.05990601 97.64870071 C51.04845623 107.76582324 51.02829462 117.88291013 51 128 C53.31 128 55.62 128 58 128 C58 132.95 58 137.9 58 143 C60.31 143 62.62 143 65 143 C65 145.31 65 147.62 65 150 C65.99902344 149.98839844 66.99804688 149.97679687 68.02734375 149.96484375 C69.31769531 149.95582031 70.60804688 149.94679688 71.9375 149.9375 C73.22527344 149.92589844 74.51304687 149.91429687 75.83984375 149.90234375 C79 150 79 150 80 151 C80.04080783 152.99958364 80.04254356 155.00045254 80 157 C80.66 156.67 81.32 156.34 82 156 C83.70702735 155.93003986 85.41668003 155.91559846 87.125 155.9375 C88.03507812 155.94652344 88.94515625 155.95554687 89.8828125 155.96484375 C90.93082031 155.98224609 90.93082031 155.98224609 92 156 C92 154.68 92 153.36 92 152 C91.21625 152.04125 90.4325 152.0825 89.625 152.125 C87 152 87 152 85 150 C84.875 147.375 84.875 147.375 85 145 C83.7934375 145.0309375 83.7934375 145.0309375 82.5625 145.0625 C80 145 80 145 79 144 C78.92686433 141.46950598 78.90752473 138.96695163 78.9375 136.4375 C78.94201172 135.72658203 78.94652344 135.01566406 78.95117188 134.28320312 C78.96299136 132.52209987 78.98092737 130.76103964 79 129 C81.31 129 83.62 129 86 129 C86 133.95 86 138.9 86 144 C88.31 144 90.62 144 93 144 C93 145.98 93 147.96 93 150 C95.31 150 97.62 150 100 150 C100.495 153.465 100.495 153.465 101 157 C111.395 157.495 111.395 157.495 122 158 C122 155.69 122 153.38 122 151 C123 150 123 150 125.94140625 149.90234375 C127.73384766 149.91974609 127.73384766 149.91974609 129.5625 149.9375 C131.35880859 149.95103516 131.35880859 149.95103516 133.19140625 149.96484375 C134.11824219 149.97644531 135.04507813 149.98804688 136 150 C135.979375 149.030625 135.95875 148.06125 135.9375 147.0625 C136 144 136 144 137 143 C139.31 143 141.62 143 144 143 C144 138.38 144 133.76 144 129 C146.31 129 148.62 129 151 129 C151 91.38 151 53.76 151 15 C153.31 15 155.62 15 158 15 C158 52.95 158 90.9 158 130 C156.02 130 154.04 130 152 130 C152 134.62 152 139.24 152 144 C149.69 144.33 147.38 144.66 145 145 C145.020625 145.969375 145.04125 146.93875 145.0625 147.9375 C145 151 145 151 144 152 C142.00041636 152.04080783 139.99954746 152.04254356 138 152 C137.855625 152.804375 137.71125 153.60875 137.5625 154.4375 C137 157 137 157 136 158 C133.81360547 158.07258946 131.62499611 158.08373783 129.4375 158.0625 C127.64119141 158.04896484 127.64119141 158.04896484 125.80859375 158.03515625 C124.88175781 158.02355469 123.95492187 158.01195312 123 158 C123 160.31 123 162.62 123 165 C108.48 165 93.96 165 79 165 C79 162.69 79 160.38 79 158 C78.00097656 158.01160156 77.00195312 158.02320313 75.97265625 158.03515625 C74.68230469 158.04417969 73.39195312 158.05320312 72.0625 158.0625 C70.77472656 158.07410156 69.48695313 158.08570313 68.16015625 158.09765625 C65 158 65 158 64 157 C63.95919217 155.00041636 63.95745644 152.99954746 64 151 C61.69 151 59.38 151 57 151 C57 148.69 57 146.38 57 144 C54.69 144 52.38 144 50 144 C50 139.05 50 134.1 50 129 C47.69 129 45.38 129 43 129 C43 91.05 43 53.1 43 14 C40.69 14 38.38 14 36 14 C36 11.69 36 9.38 36 7 C24.12 7 12.24 7 0 7 C0 4.69 0 2.38 0 0 Z " fill="#65134E" transform="translate(141,158)"/>
<path d="M0 0 C4.29 0 8.58 0 13 0 C13 23.1 13 46.2 13 70 C10.36 70 7.72 70 5 70 C5 76.93 5 83.86 5 91 C3.02 91 1.04 91 -1 91 C-1 95.95 -1 100.9 -1 106 C-2.98 106.33 -4.96 106.66 -7 107 C-7.33 111.62 -7.66 116.24 -8 121 C-10.31 121 -12.62 121 -15 121 C-15 123.31 -15 125.62 -15 128 C-17.31 128 -19.62 128 -22 128 C-22 130.31 -22 132.62 -22 135 C-24.31 135 -26.62 135 -29 135 C-29 137.31 -29 139.62 -29 142 C-33.62 142 -38.24 142 -43 142 C-43 144.64 -43 147.28 -43 150 C-38.38 150 -33.76 150 -29 150 C-29 154.62 -29 159.24 -29 164 C-59.69 164 -90.38 164 -122 164 C-122 161.69 -122 159.38 -122 157 C-112.76 157 -103.52 157 -94 157 C-94 154.69 -94 152.38 -94 150 C-86.41 150 -78.82 150 -71 150 C-71 147.69 -71 145.38 -71 143 C-66.38 143 -61.76 143 -57 143 C-57 140.69 -57 138.38 -57 136 C-52.38 136 -47.76 136 -43 136 C-43 133.36 -43 130.72 -43 128 C-40.69 128 -38.38 128 -36 128 C-36 125.69 -36 123.38 -36 121 C-33.69 121 -31.38 121 -29 121 C-29 118.69 -29 116.38 -29 114 C-26.69 114 -24.38 114 -22 114 C-22 111.69 -22 109.38 -22 107 C-19.69 107 -17.38 107 -15 107 C-15 102.05 -15 97.1 -15 92 C-12.69 92 -10.38 92 -8 92 C-8 85.07 -8 78.14 -8 71 C-5.36 71 -2.72 71 0 71 C0 47.57 0 24.14 0 0 Z " fill="#890E4E" transform="translate(335,216)"/>
<path d="M0 0 C5.94 0 11.88 0 18 0 C18 22.77 18 45.54 18 69 C15.36 69 12.72 69 10 69 C10 76.26 10 83.52 10 91 C7.03 91.495 7.03 91.495 4 92 C3.67 96.29 3.34 100.58 3 105 C0.525 105.495 0.525 105.495 -2 106 C-2.33 113.59 -2.66 121.18 -3 129 C-5.31 129 -7.62 129 -10 129 C-10 131.31 -10 133.62 -10 136 C-12.31 136 -14.62 136 -17 136 C-17 138.31 -17 140.62 -17 143 C-19.31 143 -21.62 143 -24 143 C-24 145.31 -24 147.62 -24 150 C-33.24 150 -42.48 150 -52 150 C-52 147.69 -52 145.38 -52 143 C-50.02 142.67 -48.04 142.34 -46 142 C-45.67 140.02 -45.34 138.04 -45 136 C-42.69 136 -40.38 136 -38 136 C-38 133.69 -38 131.38 -38 129 C-36.02 128.67 -34.04 128.34 -32 128 C-31.67 126.02 -31.34 124.04 -31 122 C-28.36 121.67 -25.72 121.34 -23 121 C-23 116.71 -23 112.42 -23 108 C-20.69 108 -18.38 108 -16 108 C-16 103.38 -16 98.76 -16 94 C-13.03 93.01 -13.03 93.01 -10 92 C-9.67 85.07 -9.34 78.14 -9 71 C-6.69 70.67 -4.38 70.34 -2 70 C-1.98969254 69.13778336 -1.97938507 68.27556671 -1.96876526 67.38722229 C-1.87096402 59.27886852 -1.76847486 51.17059069 -1.66066074 43.06236362 C-1.60539364 38.89340984 -1.55196774 34.72444909 -1.50268555 30.55541992 C-1.45509765 26.53536106 -1.40275714 22.51539011 -1.34705925 18.49543571 C-1.32661034 16.95839553 -1.30790153 15.42133121 -1.29092598 13.88424873 C-1.2669378 11.73857994 -1.23687617 9.59307871 -1.20532227 7.44750977 C-1.18977798 6.22395279 -1.1742337 5.00039581 -1.15821838 3.73976135 C-1 1 -1 1 0 0 Z " fill="#880E4F" transform="translate(359,216)"/>
<path d="M0 0 C11.88 0 23.76 0 36 0 C36 2.31 36 4.62 36 7 C38.31 7 40.62 7 43 7 C43 21.19 43 35.38 43 50 C26.5 50 10 50 -7 50 C-7 35.81 -7 21.62 -7 7 C-4.69 7 -2.38 7 0 7 C0 4.69 0 2.38 0 0 Z " fill="#FCFCFC" transform="translate(141,165)"/>
<path d="M0 0 C11.88 0 23.76 0 36 0 C36 2.64 36 5.28 36 8 C38.31 8 40.62 8 43 8 C43 21.86 43 35.72 43 50 C26.5 50 10 50 -7 50 C-7 35.81 -7 21.62 -7 7 C-4.69 7 -2.38 7 0 7 C0 4.69 0 2.38 0 0 Z " fill="#FCFBFC" transform="translate(306,165)"/>
<path d="M0 0 C21.45 0 42.9 0 65 0 C65 2.31 65 4.62 65 7 C67.31 7 69.62 7 72 7 C72 9.31 72 11.62 72 14 C69.36 14 66.72 14 64 14 C64 12.02 64 10.04 64 8 C57.4 8 50.8 8 44 8 C44 9.98 44 11.96 44 14 C45.98 14 47.96 14 50 14 C50 51.62 50 89.24 50 128 C48.02 128 46.04 128 44 128 C43.8274263 117.06258698 43.66103212 106.12508873 43.5 95.1875 C43.48812275 94.38102398 43.4762455 93.57454796 43.46400833 92.74363327 C43.07939011 66.49443488 42.85229768 40.25238337 43 14 C40.69 14 38.38 14 36 14 C36 11.69 36 9.38 36 7 C24.12 7 12.24 7 0 7 C0 4.69 0 2.38 0 0 Z " fill="#160A53" transform="translate(141,158)"/>
<path d="M0 0 C7.26 0 14.52 0 22 0 C22 2.31 22 4.62 22 7 C24.31 7 26.62 7 29 7 C29 21.19 29 35.38 29 50 C21.74 50 14.48 50 7 50 C7 36.14 7 22.28 7 8 C5.02 8 3.04 8 1 8 C1 21.86 1 35.72 1 50 C0.67 50 0.34 50 0 50 C0 36.14 0 22.28 0 8 C-2.31 8 -4.62 8 -7 8 C-7 7.67 -7 7.34 -7 7 C-4.69 7 -2.38 7 0 7 C0 4.69 0 2.38 0 0 Z " fill="#7A9ABE" transform="translate(349,165)"/>
<path d="M0 0 C6.6 0 13.2 0 20 0 C20 1.98 20 3.96 20 6 C22.64 6 25.28 6 28 6 C28 20.19 28 34.38 28 49 C20.74 49 13.48 49 6 49 C6 34.81 6 20.62 6 6 C4.02 6 2.04 6 0 6 C0 4.02 0 2.04 0 0 Z " fill="#7897BC" transform="translate(185,166)"/>
<path d="M0 0 C4.29 0 8.58 0 13 0 C13 23.1 13 46.2 13 70 C4 71 4 71 2 70 C2 70.66 2 71.32 2 72 C1.34 72 0.68 72 0 72 C0 48.24 0 24.48 0 0 Z " fill="#8A0E4E" transform="translate(335,216)"/>
<path d="M0 0 C2.31 0 4.62 0 7 0 C7 37.95 7 75.9 7 115 C4.69 115 2.38 115 0 115 C0 77.05 0 39.1 0 0 Z " fill="#170952" transform="translate(213,172)"/>
<path d="M0 0 C2.31 0 4.62 0 7 0 C7 37.62 7 75.24 7 114 C4.69 114 2.38 114 0 114 C0 76.38 0 38.76 0 0 Z " fill="#130C55" transform="translate(378,173)"/>
<path d="M0 0 C2.31 0 4.62 0 7 0 C7 37.62 7 75.24 7 114 C4.69 114 2.38 114 0 114 C0 76.38 0 38.76 0 0 Z " fill="#150F56" transform="translate(127,173)"/>
<path d="M0 0 C1.98 0 3.96 0 6 0 C6 37.29 6 74.58 6 113 C4.02 113 2.04 113 0 113 C0 75.71 0 38.42 0 0 Z " fill="#100D56" transform="translate(292,173)"/>
<path d="M0 0 C3.63 0 7.26 0 11 0 C11 1.98 11 3.96 11 6 C16.28 6 21.56 6 27 6 C27 8.31 27 10.62 27 13 C-3.69 13 -34.38 13 -66 13 C-66 11.02 -66 9.04 -66 7 C-44.22 7 -22.44 7 0 7 C0 4.69 0 2.38 0 0 Z " fill="#130C55" transform="translate(279,367)"/>
<path d="M0 0 C21.45 0 42.9 0 65 0 C65 2.31 65 4.62 65 7 C67.31 7 69.62 7 72 7 C72 9.31 72 11.62 72 14 C69.36 14 66.72 14 64 14 C64 12.02 64 10.04 64 8 C57.4 8 50.8 8 44 8 C44 24.17 44 40.34 44 57 C43.67 57 43.34 57 43 57 C43 42.81 43 28.62 43 14 C40.69 14 38.38 14 36 14 C36 11.69 36 9.38 36 7 C24.12 7 12.24 7 0 7 C0 4.69 0 2.38 0 0 Z " fill="#130C54" transform="translate(141,158)"/>
<path d="M0 0 C6.93 0 13.86 0 21 0 C21 30.69 21 61.38 21 93 C18.69 93 16.38 93 14 93 C14 97.95 14 102.9 14 108 C11.36 108 8.72 108 6 108 C6 112.62 6 117.24 6 122 C3.69 122 1.38 122 -1 122 C-1.02685095 119.52076199 -1.04676547 117.0418116 -1.0625 114.5625 C-1.07506836 113.50192383 -1.07506836 113.50192383 -1.08789062 112.41992188 C-1.09653588 110.61306441 -1.05220011 108.80612397 -1 107 C0 106 0 106 2.5625 105.9375 C3.366875 105.958125 4.17125 105.97875 5 106 C4.98839844 105.07316406 4.97679687 104.14632812 4.96484375 103.19140625 C4.95582031 101.99386719 4.94679688 100.79632813 4.9375 99.5625 C4.92589844 98.36753906 4.91429687 97.17257812 4.90234375 95.94140625 C5 93 5 93 6 92 C7.98 92 9.96 92 12 92 C12 84.74 12 77.48 12 70 C14.64 70 17.28 70 20 70 C20 47.23 20 24.46 20 1 C14.06 1.33 8.12 1.66 2 2 C1.67 24.77 1.34 47.54 1 71 C0.67 71 0.34 71 0 71 C0 47.57 0 24.14 0 0 Z " fill="#741558" transform="translate(357,215)"/>
<path d="M0 0 C1.98 0 3.96 0 6 0 C6.15535079 26.71316564 5.89294673 53.41524231 5.5 80.125 C5.48804218 80.93805225 5.47608437 81.75110451 5.46376419 82.58879471 C5.31420863 92.72594195 5.15949841 102.86300417 5 113 C3.35 113 1.7 113 0 113 C0 75.71 0 38.42 0 0 Z " fill="#130952" transform="translate(350,173)"/>
<path d="M0 0 C2.64 0 5.28 0 8 0 C8.02685412 2.31243792 8.04632841 4.6249627 8.0625 6.9375 C8.07410156 8.22527344 8.08570313 9.51304687 8.09765625 10.83984375 C8 14 8 14 7 15 C5.00041636 15.04080783 2.99954746 15.04254356 1 15 C1.020625 15.969375 1.04125 16.93875 1.0625 17.9375 C1 21 1 21 0 22 C-1.99958364 22.04080783 -4.00045254 22.04254356 -6 22 C-6 24.31 -6 26.62 -6 29 C-8.31 29 -10.62 29 -13 29 C-12.979375 29.969375 -12.95875 30.93875 -12.9375 31.9375 C-13 35 -13 35 -14 36 C-15.99958364 36.04080783 -18.00045254 36.04254356 -20 36 C-20 38.31 -20 40.62 -20 43 C-15.71 43 -11.42 43 -7 43 C-7 45.31 -7 47.62 -7 50 C-11.62 50 -16.24 50 -21 50 C-21 47.69 -21 45.38 -21 43 C-25.62 43 -30.24 43 -35 43 C-35 40.36 -35 37.72 -35 35 C-30.38 35 -25.76 35 -21 35 C-21 32.69 -21 30.38 -21 28 C-18.69 28 -16.38 28 -14 28 C-14 25.69 -14 23.38 -14 21 C-11.69 21 -9.38 21 -7 21 C-7 18.69 -7 16.38 -7 14 C-4.69 14 -2.38 14 0 14 C0 9.38 0 4.76 0 0 Z " fill="#41094F" transform="translate(327,323)"/>
<path d="M0 0 C4.62 0 9.24 0 14 0 C14 0.33 14 0.66 14 1 C9.71 1 5.42 1 1 1 C1 2.98 1 4.96 1 7 C0.67 7 0.34 7 0 7 C0 4.69 0 2.38 0 0 Z M-14 7 C-9.38 7 -4.76 7 0 7 C0 10.58063513 -0.34407525 12.47487986 -1.5 15.75 C-1.7784375 16.54921875 -2.056875 17.3484375 -2.34375 18.171875 C-2.5603125 18.77515625 -2.776875 19.3784375 -3 20 C-2.01 20.33 -1.02 20.66 0 21 C0 18.69 0 16.38 0 14 C9.24 14 18.48 14 28 14 C28 16.31 28 18.62 28 21 C22.72 21 17.44 21 12 21 C12 19.02 12 17.04 12 15 C8.37 15 4.74 15 1 15 C1 17.31 1 19.62 1 22 C-20.78 22 -42.56 22 -65 22 C-65 21.67 -65 21.34 -65 21 C-55.76 21 -46.52 21 -37 21 C-37 18.69 -37 16.38 -37 14 C-29.41 14 -21.82 14 -14 14 C-14 11.69 -14 9.38 -14 7 Z " fill="#8C0D4C" transform="translate(278,352)"/>
<path d="M0 0 C21.12 0 42.24 0 64 0 C64 2.31 64 4.62 64 7 C56.74 7 49.48 7 42 7 C42 9.31 42 11.62 42 14 C39.69 14 37.38 14 35 14 C35 11.36 35 8.72 35 6 C23.45 6 11.9 6 0 6 C0 4.02 0 2.04 0 0 Z " fill="#121057" transform="translate(307,158)"/>
<path d="M0 0 C2.31 0 4.62 0 7 0 C7 21.45 7 42.9 7 65 C4.69 65 2.38 65 0 65 C0 43.55 0 22.1 0 0 Z " fill="#EBC2D2" transform="translate(299,222)"/>
<path d="M0 0 C2.31 0 4.62 0 7 0 C7 21.45 7 42.9 7 65 C4.69 65 2.38 65 0 65 C0 43.55 0 22.1 0 0 Z " fill="#F0C6D6" transform="translate(134,222)"/>
<path d="M0 0 C2.97 0 5.94 0 9 0 C9 4.29 9 8.58 9 13 C11.31 13.33 13.62 13.66 16 14 C16 15.98 16 17.96 16 20 C18.31 20 20.62 20 23 20 C23 22.31 23 24.62 23 27 C25.31 27 27.62 27 30 27 C30 29.97 30 32.94 30 36 C34.29 36 38.58 36 43 36 C43 38.31 43 40.62 43 43 C38.38 43 33.76 43 29 43 C29 40.69 29 38.38 29 36 C26.69 36 24.38 36 22 36 C22 33.69 22 31.38 22 29 C19.69 29 17.38 29 15 29 C15 26.69 15 24.38 15 22 C12.36 22 9.72 22 7 22 C7 19.36 7 16.72 7 14 C4.69 14 2.38 14 0 14 C0 9.38 0 4.76 0 0 Z " fill="#AC2A50" transform="translate(148,323)"/>
<path d="M0 0 C2.31 0 4.62 0 7 0 C7 37.95 7 75.9 7 115 C6.67 115 6.34 115 6 115 C5.98969254 114.11494781 5.97938507 113.22989563 5.96876526 112.31802368 C5.87090733 103.98924184 5.76840973 95.66053293 5.66066074 87.33187294 C5.60542678 83.04972559 5.55200602 78.76757142 5.50268555 74.48535156 C5.45504897 70.35506512 5.40270642 66.22486299 5.34705925 62.09467697 C5.32663249 60.51659613 5.30791994 58.93849217 5.29092598 57.36037064 C5.26688903 55.15503811 5.23683366 52.94986549 5.20532227 50.74462891 C5.18977798 49.48776276 5.1742337 48.23089661 5.15821838 46.9359436 C5.19909528 44.06616168 5.19909528 44.06616168 4 42 C2.02 42.495 2.02 42.495 0 43 C0 28.81 0 14.62 0 0 Z " fill="#0E155B" transform="translate(213,172)"/>
<path d="M0 0 C0.33 0 0.66 0 1 0 C1 23.43 1 46.86 1 71 C2.98 71 4.96 71 7 71 C7 47.57 7 24.14 7 0 C7.33 0 7.66 0 8 0 C8 23.43 8 46.86 8 71 C10.31 71 12.62 71 15 71 C15 75.95 15 80.9 15 86 C17.31 86 19.62 86 22 86 C22 90.62 22 95.24 22 100 C21.67 100 21.34 100 21 100 C21 98.02 21 96.04 21 94 C18.69 94 16.38 94 14 94 C14 91.69 14 89.38 14 87 C11.69 87 9.38 87 7 87 C7 82.05 7 77.1 7 72 C4.69 72 2.38 72 0 72 C0 48.24 0 24.48 0 0 Z " fill="#62124A" transform="translate(184,215)"/>
<path d="M0 0 C0.33 0 0.66 0 1 0 C1 37.95 1 75.9 1 115 C-0.98 115 -2.96 115 -5 115 C-5 119.62 -5 124.24 -5 129 C-7.31 129.33 -9.62 129.66 -12 130 C-11.979375 130.969375 -11.95875 131.93875 -11.9375 132.9375 C-12 136 -12 136 -13 137 C-14.99958364 137.04080783 -17.00045254 137.04254356 -19 137 C-19.33 138.65 -19.66 140.3 -20 142 C-20.33 142 -20.66 142 -21 142 C-21.02685938 139.85423363 -21.04633088 137.70837355 -21.0625 135.5625 C-21.07410156 134.36753906 -21.08570313 133.17257812 -21.09765625 131.94140625 C-21 129 -21 129 -20 128 C-17.69 128 -15.38 128 -13 128 C-13 123.38 -13 118.76 -13 114 C-6.565 113.505 -6.565 113.505 0 113 C0 75.71 0 38.42 0 0 Z " fill="#642A5B" transform="translate(298,173)"/>
<path d="M0 0 C2.31 0 4.62 0 7 0 C7.33 2.31 7.66 4.62 8 7 C14.93 7.33 21.86 7.66 29 8 C29 9.98 29 11.96 29 14 C15.14 14 1.28 14 -13 14 C-13 12.02 -13 10.04 -13 8 C-8.71 8 -4.42 8 0 8 C0 5.36 0 2.72 0 0 Z " fill="#150B53" transform="translate(234,308)"/>
<path d="M0 0 C2.64 0 5.28 0 8 0 C8 2.64 8 5.28 8 8 C5.69 8 3.38 8 1 8 C1 10.31 1 12.62 1 15 C-1.31 15 -3.62 15 -6 15 C-6 17.31 -6 19.62 -6 22 C-8.31 22 -10.62 22 -13 22 C-13 24.31 -13 26.62 -13 29 C-17.95 29 -22.9 29 -28 29 C-27.67 26.69 -27.34 24.38 -27 22 C-22.71 22 -18.42 22 -14 22 C-14 19.03 -14 16.06 -14 13 C-11.69 13 -9.38 13 -7 13 C-7 10.69 -7 8.38 -7 6 C-4.69 6 -2.38 6 0 6 C0 4.02 0 2.04 0 0 Z " fill="#601055" transform="translate(348,337)"/>
<path d="M0 0 C0.33 0 0.66 0 1 0 C1 23.43 1 46.86 1 71 C-1.31 71 -3.62 71 -6 71 C-6 77.93 -6 84.86 -6 92 C-3.69 92 -1.38 92 1 92 C0.67 92.66 0.34 93.32 0 94 C-1.65 94 -3.3 94 -5 94 C-5 98.62 -5 103.24 -5 108 C-7.31 108 -9.62 108 -12 108 C-12 112.29 -12 116.58 -12 121 C-12.33 121 -12.66 121 -13 121 C-13 116.38 -13 111.76 -13 107 C-15.31 107 -17.62 107 -20 107 C-20 106.67 -20 106.34 -20 106 C-18.02 106 -16.04 106 -14 106 C-14 101.05 -14 96.1 -14 91 C-12.02 91 -10.04 91 -8 91 C-8 84.07 -8 77.14 -8 70 C-5.36 70 -2.72 70 0 70 C0 46.9 0 23.8 0 0 Z " fill="#6F1358" transform="translate(348,216)"/>
<path d="M0 0 C21.45 0 42.9 0 65 0 C65 2.31 65 4.62 65 7 C67.31 7 69.62 7 72 7 C72 9.31 72 11.62 72 14 C69.36 14 66.72 14 64 14 C64 12.02 64 10.04 64 8 C57.4 8 50.8 8 44 8 C44 24.17 44 40.34 44 57 C43.67 57 43.34 57 43 57 C43 40.17 43 23.34 43 6 C49.93 6 56.86 6 64 6 C64 4.35 64 2.7 64 1 C43.21 1 22.42 1 1 1 C1 2.65 1 4.3 1 6 C12.55 6 24.1 6 36 6 C36 6.33 36 6.66 36 7 C24.12 7 12.24 7 0 7 C0 4.69 0 2.38 0 0 Z " fill="#1F2B68" transform="translate(141,158)"/>
<path d="M0 0 C2.31 0 4.62 0 7 0 C7 4.95 7 9.9 7 15 C4.36 15 1.72 15 -1 15 C-1 19.62 -1 24.24 -1 29 C-3.31 29 -5.62 29 -8 29 C-8 24.05 -8 19.1 -8 14 C-5.69 14 -3.38 14 -1 14 C-1.01160156 13.07316406 -1.02320313 12.14632813 -1.03515625 11.19140625 C-1.04417969 9.99386719 -1.05320312 8.79632813 -1.0625 7.5625 C-1.07410156 6.36753906 -1.08570313 5.17257812 -1.09765625 3.94140625 C-1 1 -1 1 0 0 Z " fill="#120A51" transform="translate(364,308)"/>
<path d="M0 0 C9.24 0 18.48 0 28 0 C28 2.31 28 4.62 28 7 C22.72 7 17.44 7 12 7 C12 5.02 12 3.04 12 1 C8.37 1 4.74 1 1 1 C1 3.31 1 5.62 1 8 C-20.78 8 -42.56 8 -65 8 C-65 7.67 -65 7.34 -65 7 C-43.55 7 -22.1 7 0 7 C0 4.69 0 2.38 0 0 Z " fill="#40094A" transform="translate(278,366)"/>
<path d="M0 0 C16.5 0 33 0 50 0 C50 23.76 50 47.52 50 72 C49.34 72 48.68 72 48 72 C48 48.9 48 25.8 48 2 C32.16 1.67 16.32 1.34 0 1 C0 0.67 0 0.34 0 0 Z " fill="#D23B53" transform="translate(134,215)"/>
<path d="M0 0 C2.64 0 5.28 0 8 0 C7.34 1.65 6.68 3.3 6 5 C10.62 5 15.24 5 20 5 C20 5.66 20 6.32 20 7 C15.71 7 11.42 7 7 7 C7 8.98 7 10.96 7 13 C6 14 6 14 3.05859375 14.09765625 C1.26615234 14.08025391 1.26615234 14.08025391 -0.5625 14.0625 C-2.35880859 14.04896484 -2.35880859 14.04896484 -4.19140625 14.03515625 C-5.11824219 14.02355469 -6.04507812 14.01195312 -7 14 C-7 11.69 -7 9.38 -7 7 C-5.02 6.67 -3.04 6.34 -1 6 C-0.67 4.02 -0.34 2.04 0 0 Z " fill="#791052" transform="translate(314,352)"/>
<path d="M0 0 C7.26 0 14.52 0 22 0 C22 2.31 22 4.62 22 7 C14.74 7 7.48 7 0 7 C0 4.69 0 2.38 0 0 Z " fill="#1D1055" transform="translate(191,366)"/>
<path d="M0 0 C2.31 0 4.62 0 7 0 C7 2.31 7 4.62 7 7 C4.69 7 2.38 7 0 7 C0 9.31 0 11.62 0 14 C-4.95 14 -9.9 14 -15 14 C-14.67 11.69 -14.34 9.38 -14 7 C-7.565 6.505 -7.565 6.505 -1 6 C-0.67 4.02 -0.34 2.04 0 0 Z " fill="#140951" transform="translate(335,352)"/>
<path d="M0 0 C2.31 0 4.62 0 7 0 C7.33 1.98 7.66 3.96 8 6 C12.29 6.33 16.58 6.66 21 7 C21 9.31 21 11.62 21 14 C16.38 14 11.76 14 7 14 C7 11.69 7 9.38 7 7 C4.69 7 2.38 7 0 7 C0 4.69 0 2.38 0 0 Z " fill="#19175B" transform="translate(170,352)"/>
<path d="M0 0 C0.33 0 0.66 0 1 0 C1 2.31 1 4.62 1 7 C-3.62 7 -8.24 7 -13 7 C-13 9.31 -13 11.62 -13 14 C-17.62 14 -22.24 14 -27 14 C-27 16.31 -27 18.62 -27 21 C-34.59 21 -42.18 21 -50 21 C-50 23.31 -50 25.62 -50 28 C-59.24 28 -68.48 28 -78 28 C-78 25.69 -78 23.38 -78 21 C-77.34 21.33 -76.68 21.66 -76 22 C-76 23.32 -76 24.64 -76 26 C-68.08 26 -60.16 26 -52 26 C-52 24.35 -52 22.7 -52 21 C-51 20 -51 20 -48.77514648 19.88647461 C-47.81680908 19.89171143 -46.85847168 19.89694824 -45.87109375 19.90234375 C-44.31938477 19.90717773 -44.31938477 19.90717773 -42.73632812 19.91210938 C-41.64771484 19.92048828 -40.55910156 19.92886719 -39.4375 19.9375 C-37.7987793 19.94426758 -37.7987793 19.94426758 -36.12695312 19.95117188 C-33.41791505 19.96300174 -30.70898401 19.97948457 -28 20 C-28 17.69 -28 15.38 -28 13 C-23.38 13 -18.76 13 -14 13 C-14 10.69 -14 8.38 -14 6 C-9.38 6 -4.76 6 0 6 C0 4.02 0 2.04 0 0 Z " fill="#C5284A" transform="translate(291,345)"/>
<path d="M0 0 C2.31 0 4.62 0 7 0 C7 6.93 7 13.86 7 21 C4.69 21 2.38 21 0 21 C0 14.07 0 7.14 0 0 Z " fill="#140C54" transform="translate(371,287)"/>
<path d="M0 0 C2.31 0 4.62 0 7 0 C7 6.93 7 13.86 7 21 C4.69 21 2.38 21 0 21 C0 14.07 0 7.14 0 0 Z " fill="#1E074F" transform="translate(342,287)"/>
<path d="M0 0 C2.31 0 4.62 0 7 0 C7 6.93 7 13.86 7 21 C4.69 21 2.38 21 0 21 C0 14.07 0 7.14 0 0 Z " fill="#180D53" transform="translate(134,287)"/>
<path d="M0 0 C7.26 0 14.52 0 22 0 C22 2.31 22 4.62 22 7 C21.67 7 21.34 7 21 7 C21 5.02 21 3.04 21 1 C14.4 1 7.8 1 1 1 C1 2.98 1 4.96 1 7 C3.31 7 5.62 7 8 7 C8 21.19 8 35.38 8 50 C7.67 50 7.34 50 7 50 C7 36.14 7 22.28 7 8 C5.02 8 3.04 8 1 8 C1 21.86 1 35.72 1 50 C0.67 50 0.34 50 0 50 C0 36.14 0 22.28 0 8 C-2.31 8 -4.62 8 -7 8 C-7 7.67 -7 7.34 -7 7 C-4.69 7 -2.38 7 0 7 C0 4.69 0 2.38 0 0 Z " fill="#636A96" transform="translate(349,165)"/>
<path d="M0 0 C9.57 0 19.14 0 29 0 C29 2.31 29 4.62 29 7 C26.36 7 23.72 7 21 7 C21 5.02 21 3.04 21 1 C14.4 1 7.8 1 1 1 C1 17.17 1 33.34 1 50 C0.67 50 0.34 50 0 50 C0 33.5 0 17 0 0 Z " fill="#606591" transform="translate(184,165)"/>
<path d="M0 0 C4.62 0 9.24 0 14 0 C14 2.31 14 4.62 14 7 C9.38 7 4.76 7 0 7 C0 4.69 0 2.38 0 0 Z " fill="#860A4B" transform="translate(292,366)"/>
<path d="M0 0 C2.31 0 4.62 0 7 0 C7 4.62 7 9.24 7 14 C4.69 14 2.38 14 0 14 C0 9.38 0 4.76 0 0 Z " fill="#150E53" transform="translate(148,323)"/>
<path d="M0 0 C2.31 0 4.62 0 7 0 C7 4.62 7 9.24 7 14 C4.69 14 2.38 14 0 14 C0 9.38 0 4.76 0 0 Z " fill="#1F064F" transform="translate(335,309)"/>
<path d="M0 0 C2.31 0 4.62 0 7 0 C7 4.62 7 9.24 7 14 C4.69 14 2.38 14 0 14 C0 9.38 0 4.76 0 0 Z " fill="#181157" transform="translate(141,309)"/>
<path d="M0 0 C4.62 0 9.24 0 14 0 C14 2.31 14 4.62 14 7 C9.38 7 4.76 7 0 7 C0 4.69 0 2.38 0 0 Z " fill="#24074D" transform="translate(206,308)"/>
<path d="M0 0 C2.31 0 4.62 0 7 0 C7 4.62 7 9.24 7 14 C4.69 14 2.38 14 0 14 C0 9.38 0 4.76 0 0 Z " fill="#0F0F58" transform="translate(285,287)"/>
<path d="M0 0 C2.31 0 4.62 0 7 0 C7 4.62 7 9.24 7 14 C4.69 14 2.38 14 0 14 C0 9.38 0 4.76 0 0 Z " fill="#180D54" transform="translate(220,287)"/>
<path d="M0 0 C1.79244141 0.01740234 1.79244141 0.01740234 3.62109375 0.03515625 C5.41740234 0.04869141 5.41740234 0.04869141 7.25 0.0625 C8.17683594 0.07410156 9.10367187 0.08570313 10.05859375 0.09765625 C10.05859375 2.40765625 10.05859375 4.71765625 10.05859375 7.09765625 C5.43859375 7.09765625 0.81859375 7.09765625 -3.94140625 7.09765625 C-3.94140625 0.13085678 -3.94140625 0.13085678 0 0 Z " fill="#171559" transform="translate(266.94140625,307.90234375)"/>
<path d="M0 0 C4.62 0 9.24 0 14 0 C14 1.98 14 3.96 14 6 C9.38 6 4.76 6 0 6 C0 4.02 0 2.04 0 0 Z " fill="#1B0650" transform="translate(292,359)"/>
<path d="M0 0 C1.98 0 3.96 0 6 0 C6 4.62 6 9.24 6 14 C4.02 14 2.04 14 0 14 C0 9.38 0 4.76 0 0 Z " fill="#25054A" transform="translate(192,287)"/>
<path d="M0 0 C0.33 0 0.66 0 1 0 C1 4.95 1 9.9 1 15 C-1.31 15 -3.62 15 -6 15 C-5.67 10.71 -5.34 6.42 -5 2 C-3.35 2 -1.7 2 0 2 C0 1.34 0 0.68 0 0 Z " fill="#12175E" transform="translate(370,308)"/>
<path d="M0 0 C4.29 0 8.58 0 13 0 C13 1.98 13 3.96 13 6 C8.71 6 4.42 6 0 6 C0 4.02 0 2.04 0 0 Z " fill="#111059" transform="translate(307,367)"/>
<path d="M0 0 C2.31 0 4.62 0 7 0 C7 2.31 7 4.62 7 7 C4.69 7 2.38 7 0 7 C0 9.31 0 11.62 0 14 C-4.95 14 -9.9 14 -15 14 C-15 13.67 -15 13.34 -15 13 C-10.38 13 -5.76 13 -1 13 C-0.67 8.71 -0.34 4.42 0 0 Z " fill="#161F63" transform="translate(335,352)"/>
<path d="M0 0 C0.33 0 0.66 0 1 0 C1 1.98 1 3.96 1 6 C2.98 6 4.96 6 7 6 C7 6.33 7 6.66 7 7 C5.02 7 3.04 7 1 7 C1 9.31 1 11.62 1 14 C5.29 14 9.58 14 14 14 C14 14.33 14 14.66 14 15 C9.71 15 5.42 15 1 15 C1 16.98 1 18.96 1 21 C0.67 21 0.34 21 0 21 C0 18.69 0 16.38 0 14 C-4.62 14 -9.24 14 -14 14 C-14 13.67 -14 13.34 -14 13 C-9.38 13 -4.76 13 0 13 C0 11.02 0 9.04 0 7 C-4.62 7 -9.24 7 -14 7 C-14 6.67 -14 6.34 -14 6 C-9.38 6 -4.76 6 0 6 C0 4.02 0 2.04 0 0 Z " fill="#46094E" transform="translate(306,352)"/>
<path d="M0 0 C0.33 0 0.66 0 1 0 C1 1.98 1 3.96 1 6 C-3.62 6 -8.24 6 -13 6 C-13 8.31 -13 10.62 -13 13 C-24.22 13 -35.44 13 -47 13 C-47 12.67 -47 12.34 -47 12 C-31.655 11.505 -31.655 11.505 -16 11 C-15.34 9.02 -14.68 7.04 -14 5 C-9.38 5 -4.76 5 0 5 C0 3.35 0 1.7 0 0 Z " fill="#671055" transform="translate(291,360)"/>
<path d="M0 0 C1.4540625 0.0309375 1.4540625 0.0309375 2.9375 0.0625 C2.9375 0.7225 2.9375 1.3825 2.9375 2.0625 C1.2875 2.0625 -0.3625 2.0625 -2.0625 2.0625 C-2.05089844 2.91714844 -2.03929687 3.77179688 -2.02734375 4.65234375 C-2.01832031 5.75707031 -2.00929688 6.86179687 -2 8 C-1.98839844 9.10214844 -1.97679687 10.20429688 -1.96484375 11.33984375 C-2.0625 14.0625 -2.0625 14.0625 -3.0625 15.0625 C-5.3725 15.0625 -7.6825 15.0625 -10.0625 15.0625 C-10.0625 19.6825 -10.0625 24.3025 -10.0625 29.0625 C-10.3925 29.0625 -10.7225 29.0625 -11.0625 29.0625 C-11.0625 24.1125 -11.0625 19.1625 -11.0625 14.0625 C-8.7525 14.0625 -6.4425 14.0625 -4.0625 14.0625 C-4.07410156 13.13566406 -4.08570313 12.20882813 -4.09765625 11.25390625 C-4.10667969 10.05636719 -4.11570312 8.85882813 -4.125 7.625 C-4.13660156 6.43003906 -4.14820313 5.23507812 -4.16015625 4.00390625 C-4.02995498 0.08224398 -4.02995498 0.08224398 0 0 Z " fill="#450950" transform="translate(367.0625,307.9375)"/>
<path d="M0 0 C2.31 0 4.62 0 7 0 C7 0.66 7 1.32 7 2 C5.35 2 3.7 2 2 2 C2 3.98 2 5.96 2 8 C0 9 -2 10 -4 11 C-5.13350534 13.01669827 -5.13350534 13.01669827 -6 15 C-6.33 15 -6.66 15 -7 15 C-7 12.36 -7 9.72 -7 7 C-4.69 7 -2.38 7 0 7 C0 4.69 0 2.38 0 0 Z " fill="#9E1043" transform="translate(299,337)"/>
<path d="M0 0 C2.31 0.33 4.62 0.66 7 1 C7.33 3.31 7.66 5.62 8 8 C5.36 8 2.72 8 0 8 C0 5.36 0 2.72 0 0 Z " fill="#191A5D" transform="translate(155,337)"/>
<path d="M0 0 C2.31 0 4.62 0 7 0 C7 2.31 7 4.62 7 7 C4.69 7 2.38 7 0 7 C0 4.69 0 2.38 0 0 Z " fill="#181357" transform="translate(342,345)"/>
<path d="M0 0 C2.31 0 4.62 0 7 0 C7 2.31 7 4.62 7 7 C4.69 7 2.38 7 0 7 C0 4.69 0 2.38 0 0 Z " fill="#1E1253" transform="translate(163,345)"/>
<path d="M0 0 C2.31 0 4.62 0 7 0 C7 2.31 7 4.62 7 7 C4.69 7 2.38 7 0 7 C0 4.69 0 2.38 0 0 Z " fill="#2B074D" transform="translate(199,301)"/>
<path d="M0 0 C2.31 0 4.62 0 7 0 C7 2.31 7 4.62 7 7 C4.69 7 2.38 7 0 7 C0 4.69 0 2.38 0 0 Z " fill="#172A6B" transform="translate(206,165)"/>
<path d="M0 0 C2.31 0 4.62 0 7 0 C7 2.31 7 4.62 7 7 C4.69 7 2.38 7 0 7 C0 4.69 0 2.38 0 0 Z " fill="#181A5B" transform="translate(134,165)"/>
<path d="M0 0 C2.31 0 4.62 0 7 0 C7 2.31 7 4.62 7 7 C4.69 7 2.38 7 0 7 C0 4.69 0 2.38 0 0 Z " fill="#11175B" transform="translate(371,165)"/>
<path d="M0 0 C2.31 0 4.62 0 7 0 C7 2.31 7 4.62 7 7 C4.69 7 2.38 7 0 7 C0 4.69 0 2.38 0 0 Z " fill="#171F60" transform="translate(299,165)"/>
<path d="M0 0 C1.4540625 0.0309375 1.4540625 0.0309375 2.9375 0.0625 C2.9375 2.3725 2.9375 4.6825 2.9375 7.0625 C0.6275 7.0625 -1.6825 7.0625 -4.0625 7.0625 C-4.10504356 5.06295254 -4.10330783 3.06208364 -4.0625 1.0625 C-3.0625 0.0625 -3.0625 0.0625 0 0 Z " fill="#112D6D" transform="translate(281.0625,300.9375)"/>
<path d="M0 0 C2.64 0 5.28 0 8 0 C8 1.98 8 3.96 8 6 C5.36 6 2.72 6 0 6 C0 4.02 0 2.04 0 0 Z " fill="#DC2E45" transform="translate(134,216)"/>
<path d="M0 0 C1.32 0 2.64 0 4 0 C4 3.96 4 7.92 4 12 C2.68 11.67 1.36 11.34 0 11 C0 7.37 0 3.74 0 0 Z " fill="#110A55" transform="translate(329,324)"/>
<path d="M0 0 C2.64 0 5.28 0 8 0 C7.67 0.66 7.34 1.32 7 2 C5.35 2 3.7 2 2 2 C2.01160156 2.78503906 2.02320313 3.57007813 2.03515625 4.37890625 C2.08375507 10.03719775 2.01294749 15.42878878 1 21 C0.67 21 0.34 21 0 21 C0 14.07 0 7.14 0 0 Z " fill="#A41646" transform="translate(327,287)"/>
<path d="M0 0 C1.98 0 3.96 0 6 0 C6 2.31 6 4.62 6 7 C3.69 7 1.38 7 -1 7 C-0.67 4.69 -0.34 2.38 0 0 Z " fill="#161359" transform="translate(350,338)"/>
<path d="M0 0 C2.31 0 4.62 0 7 0 C7 1.98 7 3.96 7 6 C4.69 6 2.38 6 0 6 C0 4.02 0 2.04 0 0 Z " fill="#1D0A4E" transform="translate(170,352)"/>
<path d="M0 0 C1.32 0 2.64 0 4 0 C4 3.3 4 6.6 4 10 C2.68 10 1.36 10 0 10 C0 6.7 0 3.4 0 0 Z " fill="#130953" transform="translate(193,289)"/>
<path d="M0 0 C0.33 0 0.66 0 1 0 C1 4.62 1 9.24 1 14 C-1.31 14 -3.62 14 -6 14 C-5.34 13.01 -4.68 12.02 -4 11 C-3.01 11 -2.02 11 -1 11 C-1.01160156 10.28972656 -1.02320313 9.57945312 -1.03515625 8.84765625 C-1.04869141 7.46900391 -1.04869141 7.46900391 -1.0625 6.0625 C-1.07410156 5.14597656 -1.08570313 4.22945313 -1.09765625 3.28515625 C-1 1 -1 1 0 0 Z " fill="#360943" transform="translate(291,287)"/>
<path d="M0 0 C1.98 0 3.96 0 6 0 C6 1.98 6 3.96 6 6 C4.02 6 2.04 6 0 6 C0 4.02 0 2.04 0 0 Z " fill="#1B0650" transform="translate(307,352)"/>
<path d="M0 0 C1.98 0 3.96 0 6 0 C6 1.98 6 3.96 6 6 C4.02 6 2.04 6 0 6 C0 4.02 0 2.04 0 0 Z " fill="#1D0650" transform="translate(314,345)"/>
<path d="M0 0 C1.98 0 3.96 0 6 0 C6 1.98 6 3.96 6 6 C4.02 6 2.04 6 0 6 C0 4.02 0 2.04 0 0 Z " fill="#190750" transform="translate(321,338)"/>
<path d="M0 0 C1.98 0 3.96 0 6 0 C6 1.98 6 3.96 6 6 C4.02 6 2.04 6 0 6 C0 4.02 0 2.04 0 0 Z " fill="#140C53" transform="translate(228,302)"/>
<path d="M0 0 C2.33294775 -0.04241723 4.66702567 -0.04092937 7 0 C8 1 8 1 8.0625 4.0625 C8.041875 5.031875 8.02125 6.00125 8 7 C9.98 7 11.96 7 14 7 C14 7.33 14 7.66 14 8 C11.66705225 8.04241723 9.33297433 8.04092937 7 8 C6 7 6 7 5.9375 4.4375 C5.958125 3.633125 5.97875 2.82875 6 2 C4.35 2 2.7 2 1 2 C0.67 1.34 0.34 0.68 0 0 Z " fill="#591055" transform="translate(220,301)"/>
<path d="M0 0 C0 1.98 0 3.96 0 6 C-1.98 6 -3.96 6 -6 6 C-6 5.34 -6 4.68 -6 4 C-1.41176471 0 -1.41176471 0 0 0 Z " fill="#200749" transform="translate(284,302)"/>
<path d="M0 0 C0.99 0 1.98 0 3 0 C3 1.65 3 3.3 3 5 C1.35 5 -0.3 5 -2 5 C-1.125 1.125 -1.125 1.125 0 0 Z " fill="#110B53" transform="translate(209,166)"/>
</svg>
